<svg width="212" height="212" viewBox="0 0 212 212" fill="none" xmlns="http://www.w3.org/2000/svg">
<path fill-rule="evenodd" clip-rule="evenodd" d="M59.4153 68.9848C65.4616 63.0191 65.4955 53.8522 63.8589 45.898C63.5833 44.5709 63.49 43.1377 62.6547 42.082C61.8194 41.0262 60.1997 40.4708 59.1016 41.234C58.19 41.87 57.9525 43.0996 57.5625 44.1469C57.0378 45.5456 56.1297 46.7682 54.9421 47.6745C54.1662 48.2597 53.1613 48.7091 52.2412 48.3911C50.9693 47.9671 50.5707 46.3856 50.3545 45.0542L49.1333 37.6215C48.9837 36.2791 48.6201 34.9693 48.0564 33.7419C47.4289 32.5547 46.3137 31.5371 44.9909 31.4014C43.668 31.2657 42.2306 32.2494 42.184 33.602C42.228 34.161 42.3101 34.7163 42.4299 35.2641C42.485 35.8237 42.3324 36.4767 41.8363 36.7184C41.3402 36.9601 40.7381 36.6802 40.2717 36.358C38.6733 35.2513 37.4479 33.6825 36.2861 32.118C35.1244 30.5534 33.9753 28.9337 32.4701 27.6829C30.9649 26.4321 29.0781 25.5629 27.1362 25.7877C25.1943 26.0124 23.3923 27.5218 23.2312 29.4722C23.0701 31.4226 24.5032 33.1398 25.9321 34.4542C28.0852 36.3981 30.5071 38.0217 33.1231 39.2751C33.6192 39.4479 34.047 39.7747 34.3442 40.2079C34.7682 41.0559 34.0983 42.0693 33.2715 42.506C32.3387 43.0063 31.249 43.0869 30.2314 43.3879C29.2138 43.6889 28.175 44.3334 27.9503 45.3807C27.6365 46.8308 29.0145 48.0604 30.2908 48.7981C32.8478 50.2843 35.6419 51.3185 38.5503 51.8552C39.5891 52.046 40.6703 52.1817 41.5734 52.7329C42.4765 53.2841 43.1592 54.3992 42.8454 55.4168C42.5317 56.4344 41.3572 56.9432 40.3014 56.9262C39.2457 56.9092 38.2323 56.5022 37.1977 56.3114C35.2516 55.9341 32.9196 56.4641 32.0165 58.2406C31.482 59.4656 31.5527 60.8702 32.2073 62.0354C32.8556 63.1764 33.7265 64.1756 34.7682 64.9737C38.2557 67.953 42.4707 69.9544 46.9836 70.7741C51.4653 71.5161 55.4637 71.2447 59.4026 68.9848" fill="#EBEBEB"/>
<path fill-rule="evenodd" clip-rule="evenodd" d="M24.8506 27.3141C24.8961 27.3546 24.9459 27.3902 24.999 27.4201L25.4527 27.7041C25.8555 27.9501 26.4448 28.3189 27.1911 28.8108C29.3085 30.1934 31.3183 31.734 33.2034 33.4196C34.3991 34.4797 35.6668 35.6965 37.0194 37.0321C38.3719 38.3677 39.7669 39.8009 41.2 41.3654C42.7041 42.9941 44.1194 44.7024 45.44 46.4831C46.1227 47.4117 46.7629 48.3953 47.4116 49.4002L49.3832 52.453C51.9084 56.3188 54.2143 60.3234 56.2901 64.4478C57.9756 67.8186 59.3398 71.3407 60.3648 74.9674C61.0496 77.4151 61.5206 79.9176 61.7725 82.4467C61.8531 83.3414 61.9039 84.041 61.9209 84.5159C61.9209 84.7406 61.9421 84.9187 61.9506 85.0544C61.9462 85.1151 61.9462 85.176 61.9506 85.2367C61.9569 85.1761 61.9569 85.115 61.9506 85.0544C61.9506 84.9187 61.9506 84.7406 61.9506 84.5117C61.9506 84.0368 61.9124 83.3372 61.8488 82.4383C61.6321 79.8971 61.1851 77.381 60.5132 74.9207C59.508 71.2746 58.1549 67.7335 56.4725 64.3462C54.3999 60.2142 52.091 56.2051 49.5572 52.3387L47.5855 49.2857C46.9325 48.2851 46.288 47.2929 45.5969 46.3601C44.2784 44.5649 42.8585 42.8463 41.3442 41.2128C39.9068 39.644 38.4822 38.2109 37.1423 36.888C35.8025 35.5651 34.5263 34.344 33.3263 33.2882C31.4225 31.6102 29.3895 30.0847 27.2462 28.726C26.4872 28.2469 25.8894 27.878 25.4781 27.6617L25.0159 27.3989C24.9631 27.3663 24.9078 27.338 24.8506 27.3141V27.3141Z" fill="#E0E0E0"/>
<path fill-rule="evenodd" clip-rule="evenodd" d="M45.5507 46.3389C45.5812 46.1455 45.5911 45.9494 45.5803 45.7538C45.5803 45.3722 45.5803 44.8253 45.5803 44.1469C45.5422 42.7943 45.4277 40.9245 45.292 38.8638C45.1563 36.8032 45.0631 34.9376 45.0461 33.585C45.0461 32.9109 45.0461 32.3639 45.0461 31.9865C45.0592 31.7898 45.0506 31.5921 45.0207 31.3972C44.9752 31.589 44.951 31.7852 44.9486 31.9823C44.9147 32.3597 44.8935 32.9066 44.8807 33.585C44.8553 34.9418 44.9147 36.8159 45.0546 38.8808C45.1945 40.9457 45.3175 42.7477 45.415 44.1553C45.4574 44.7913 45.4871 45.3256 45.5167 45.7538C45.5019 45.9495 45.5133 46.1463 45.5507 46.3389V46.3389Z" fill="#E0E0E0"/>
<path fill-rule="evenodd" clip-rule="evenodd" d="M27.9248 46.0676C28.1571 46.078 28.3899 46.0666 28.6202 46.0337C29.0442 45.9955 29.7098 45.9404 30.507 45.898C32.1012 45.8005 34.323 45.7411 36.7398 45.7835C39.1566 45.8259 41.3783 45.9616 42.9726 46.1057C43.7654 46.1736 44.4099 46.2457 44.8551 46.2923C45.0849 46.3298 45.3177 46.3454 45.5505 46.3389C45.3278 46.2701 45.0993 46.2219 44.8678 46.1948C44.4438 46.1185 43.7824 46.0209 42.9895 45.9319C41.3953 45.7411 39.1735 45.5757 36.744 45.5333C34.659 45.4886 32.573 45.5508 30.4943 45.7199C29.6971 45.7877 29.0526 45.8683 28.6117 45.9361C28.3791 45.9584 28.1492 46.0024 27.9248 46.0676L27.9248 46.0676Z" fill="#E0E0E0"/>
<path fill-rule="evenodd" clip-rule="evenodd" d="M56.231 64.0452C56.2678 63.9727 56.2948 63.8957 56.3115 63.8162C56.3624 63.6381 56.4218 63.4177 56.4981 63.1505C56.6592 62.5697 56.867 61.7217 57.1086 60.6744C57.6005 58.5756 58.1856 55.6585 58.8046 52.4318C59.4237 49.2052 59.9622 46.2796 60.4074 44.1765C60.6278 43.1547 60.8102 42.3109 60.9416 41.6877C61.001 41.4163 61.0476 41.1916 61.0858 41.005C61.1079 40.9279 61.1179 40.8478 61.1154 40.7676C61.0811 40.841 61.0541 40.9177 61.0349 40.9965C60.984 41.1746 60.9246 41.3951 60.8483 41.6622C60.6914 42.2431 60.4837 43.0869 60.2378 44.1384C59.7459 46.2329 59.1608 49.1543 58.5418 52.3809C57.9227 55.6076 57.3842 58.512 56.939 60.632C56.7186 61.6538 56.5405 62.4976 56.4048 63.1208L56.2649 63.7993C56.2428 63.8794 56.2314 63.9621 56.231 64.0452H56.231Z" fill="#E0E0E0"/>
<path fill-rule="evenodd" clip-rule="evenodd" d="M32.2881 60.632C32.3664 60.6592 32.4474 60.6777 32.5298 60.6871L33.2251 60.7931L35.7691 61.1662C37.9358 61.48 40.9207 61.9506 44.2194 62.4721C47.5182 62.9937 50.5116 63.4389 52.6994 63.706C53.7849 63.8417 54.6626 63.9434 55.2731 63.9985L55.9685 64.024C56.05 64.0359 56.1329 64.0359 56.2144 64.024C56.1361 63.9967 56.0551 63.9782 55.9727 63.9689L55.2774 63.8629L52.7334 63.4897C50.5667 63.176 47.5818 62.7053 44.283 62.1838C40.9843 61.6623 37.9909 61.2171 35.803 60.9457C34.7134 60.8143 33.8357 60.7125 33.2251 60.6532L32.534 60.632C32.4525 60.62 32.3696 60.62 32.2881 60.632V60.632Z" fill="#E0E0E0"/>
<path fill-rule="evenodd" clip-rule="evenodd" d="M192.882 46.3813C192.882 46.3813 188.553 44.2613 184.898 54.4373C181.243 64.6133 180.099 70.3458 180.099 70.3458C180.099 70.3458 179.068 72.5082 177.525 71.3761C175.982 70.244 173.633 66.7715 171.381 67.734C169.045 68.7346 168.591 71.55 169.558 75.455C170.525 79.36 172.327 88.0224 172.488 88.8068C172.649 89.5912 172.344 90.7741 171.169 90.172C169.995 89.57 162.914 83.4432 160.209 86.9793C157.504 90.5155 161.985 100.971 162.456 102.129C162.927 103.286 162.753 103.825 162.223 104.189C161.693 104.554 159.509 102.273 157.423 100.615C155.337 98.9573 152.623 97.397 151.237 99.5679C149.85 101.739 150.355 109.952 159.789 122.201L164.512 127.569L171.606 126.267C186.611 122.553 192.123 116.443 192.382 113.878C192.641 111.313 189.554 110.846 186.891 110.846C184.228 110.846 181.091 111.27 180.904 110.655C180.718 110.041 180.925 109.511 182.007 108.9C183.088 108.29 193.115 102.892 193.2 98.44C193.285 93.988 183.927 94.3739 182.634 94.1152C181.341 93.8566 181.85 92.733 182.452 92.2284C183.054 91.7239 189.863 86.0635 193.052 83.6C196.24 81.1366 197.635 78.6604 196.444 76.426C195.282 74.2678 191.279 75.5186 189.371 75.4465C187.463 75.3744 187.998 73.0382 187.998 73.0382C187.998 73.0382 190.677 67.8357 194.146 57.6004C197.614 47.365 192.776 46.3432 192.776 46.3432" fill="#E0E0E0"/>
<path fill-rule="evenodd" clip-rule="evenodd" d="M189.592 55.4803C189.592 55.4803 189.592 55.5567 189.528 55.6966C189.464 55.8365 189.413 56.0612 189.324 56.3326C189.142 56.8923 188.871 57.7106 188.523 58.7579C187.828 60.8779 186.793 63.901 185.504 67.6619C182.926 75.1667 179.276 85.5038 175.214 96.9179C171.152 108.332 167.48 118.631 164.86 126.123C163.558 129.863 162.502 132.907 161.773 134.997L160.925 137.41C160.827 137.677 160.755 137.885 160.7 138.033C160.645 138.182 160.62 138.245 160.62 138.245C160.62 138.245 160.62 138.169 160.679 138.029C160.738 137.889 160.798 137.664 160.883 137.393C161.069 136.829 161.34 136.015 161.684 134.968C162.383 132.848 163.414 129.824 164.707 126.064C167.285 118.559 170.931 108.222 174.997 96.8076C179.064 85.3935 182.735 75.0776 185.352 67.5855C186.653 63.8459 187.705 60.8015 188.438 58.7112C188.803 57.6724 189.083 56.8583 189.286 56.2987C189.384 56.0315 189.46 55.8238 189.511 55.6754C189.562 55.527 189.592 55.4803 189.592 55.4803V55.4803Z" fill="#EBEBEB"/>
<path fill-rule="evenodd" clip-rule="evenodd" d="M174.476 72.7032C174.577 72.8444 174.658 72.9984 174.718 73.1612C174.862 73.4622 175.057 73.9074 175.29 74.4332C175.757 75.5313 176.363 77.062 176.986 78.7664L178.606 83.1336C178.801 83.6552 178.97 84.0961 179.102 84.4523C179.174 84.6099 179.23 84.7748 179.267 84.9441C179.169 84.8007 179.087 84.6472 179.021 84.4862C178.881 84.1852 178.686 83.74 178.457 83.1888C178 82.0864 177.414 80.5473 176.761 78.8428C176.109 77.1383 175.553 75.6501 175.112 74.4925L174.608 73.1739C174.549 73.0213 174.505 72.8638 174.476 72.7032V72.7032Z" fill="#EBEBEB"/>
<path fill-rule="evenodd" clip-rule="evenodd" d="M179.954 85.0077C179.929 84.9526 183.032 83.5619 186.887 81.904C190.741 80.2462 193.883 78.936 193.908 79.0081C193.934 79.0802 190.83 80.454 186.976 82.1118C183.122 83.7696 179.98 85.0671 179.954 85.0077V85.0077Z" fill="#EBEBEB"/>
<path fill-rule="evenodd" clip-rule="evenodd" d="M172.92 102.239C173.09 102.192 173.265 102.162 173.441 102.15L174.875 101.972C176.079 101.824 177.745 101.607 179.572 101.302C181.4 100.997 183.049 100.675 184.236 100.424L185.648 100.132C185.819 100.087 185.994 100.059 186.17 100.047C186.011 100.124 185.843 100.181 185.67 100.217C185.339 100.31 184.864 100.437 184.27 100.577C183.087 100.865 181.442 101.221 179.606 101.523C177.77 101.824 176.1 102.019 174.883 102.129C174.277 102.184 173.785 102.222 173.446 102.235C173.271 102.256 173.095 102.258 172.92 102.239V102.239Z" fill="#EBEBEB"/>
<path fill-rule="evenodd" clip-rule="evenodd" d="M165.517 92.1988C165.64 92.3083 165.751 92.4306 165.848 92.5634L166.696 93.6022C167.391 94.4884 168.065 96.0699 169.375 97.0832C170.41 98.4528 171.339 99.6993 172 100.607L172.776 101.692C172.88 101.822 172.967 101.964 173.035 102.116C172.913 102.007 172.803 101.885 172.708 101.751C172.479 101.467 172.204 101.12 171.86 100.713C171.165 99.8265 170.219 98.5927 169.185 97.2274C168.15 95.8621 167.217 94.6156 166.556 93.7082L165.784 92.6143C165.679 92.4869 165.589 92.3474 165.517 92.1988V92.1988Z" fill="#EBEBEB"/>
<path fill-rule="evenodd" clip-rule="evenodd" d="M157.376 106.623C157.53 106.768 157.672 106.926 157.8 107.094L158.873 108.421C159.768 109.549 160.993 111.118 162.342 112.856C163.69 114.594 164.886 116.18 165.755 117.333L166.772 118.707C166.903 118.871 167.02 119.045 167.12 119.229C166.963 119.086 166.821 118.929 166.696 118.758L165.623 117.448C164.724 116.32 163.503 114.751 162.155 113.009C160.807 111.266 159.611 109.689 158.738 108.535L157.728 107.145C157.594 106.983 157.476 106.808 157.376 106.623L157.376 106.623Z" fill="#EBEBEB"/>
<path fill-rule="evenodd" clip-rule="evenodd" d="M166.963 118.86C167.178 118.8 167.398 118.756 167.62 118.728L169.426 118.44C170.948 118.194 173.052 117.846 175.362 117.397C177.673 116.948 179.755 116.494 181.26 116.15L183.045 115.748C183.26 115.686 183.48 115.645 183.702 115.625C183.496 115.709 183.283 115.778 183.066 115.832C182.642 115.951 182.045 116.117 181.298 116.303C179.802 116.685 177.72 117.172 175.405 117.618C173.09 118.063 170.982 118.389 169.469 118.597C168.701 118.699 168.082 118.771 167.65 118.817C167.423 118.854 167.193 118.868 166.963 118.86V118.86Z" fill="#EBEBEB"/>
<path fill-rule="evenodd" clip-rule="evenodd" d="M194.921 192.174C194.921 192.296 153.658 192.386 102.765 192.386C51.8722 192.386 10.6001 192.304 10.6001 192.174C10.6001 192.043 51.8595 191.962 102.769 191.962C153.679 191.962 194.921 192.068 194.921 192.174V192.174Z" fill="#004040"/>
<rect x="59" y="28" width="108" height="135" fill="#F5F5F5"/>
<path fill-rule="evenodd" clip-rule="evenodd" d="M59.3599 27.7805L167.391 27.6872H167.48V27.7805C167.48 66.4917 167.48 113.123 167.48 163.291V163.414H167.37H59.3387H59.2412V163.316C59.3006 82.7818 59.3387 28.6582 59.3387 27.7932C59.3387 28.6412 59.3811 82.7818 59.4405 163.316L59.3387 163.219H167.37L167.259 163.329V163.329C167.259 113.161 167.259 66.5298 167.259 27.8186L167.353 27.9077L59.3599 27.7805Z" fill="#004040"/>
<path fill-rule="evenodd" clip-rule="evenodd" d="M100.963 38.5246H102.048V43.4473H105.101V44.3631H100.963V38.5246Z" fill="black"/>
<path fill-rule="evenodd" clip-rule="evenodd" d="M105.449 42.1371C105.413 41.1691 105.968 40.2761 106.852 39.8806C107.737 39.4851 108.772 39.6664 109.47 40.3388C110.167 41.0112 110.386 42.0398 110.023 42.9379C109.66 43.836 108.788 44.4235 107.819 44.4225C107.195 44.458 106.585 44.2316 106.135 43.7978C105.685 43.3639 105.436 42.762 105.449 42.1371H105.449ZM109.146 42.1371C109.107 41.4178 108.499 40.8621 107.779 40.8871C107.059 40.9122 106.492 41.5088 106.503 42.2291C106.513 42.9495 107.099 43.5287 107.819 43.5321C108.186 43.5429 108.541 43.397 108.794 43.1308C109.047 42.8646 109.175 42.5033 109.146 42.1371H109.146Z" fill="black"/>
<path fill-rule="evenodd" clip-rule="evenodd" d="M115.616 39.9111V43.672C115.616 45.2874 114.768 46.0252 113.212 46.0252C112.44 46.0547 111.679 45.8314 111.045 45.3892L111.512 44.6048C111.986 44.9593 112.565 45.1471 113.157 45.139C114.14 45.139 114.573 44.6896 114.573 43.7865V43.5533C114.183 43.9554 113.64 44.1714 113.08 44.1469C112.289 44.182 111.542 43.7797 111.136 43.0995C110.729 42.4193 110.729 41.5709 111.136 40.8907C111.542 40.2104 112.289 39.8081 113.08 39.8433C113.666 39.8117 114.234 40.049 114.624 40.4878V39.8942L115.616 39.9111ZM114.59 42.0057C114.625 41.4501 114.317 40.9297 113.813 40.6929C113.309 40.4561 112.712 40.5511 112.306 40.9325C111.901 41.3138 111.769 41.9042 111.975 42.4215C112.18 42.9389 112.681 43.2783 113.237 43.2777C113.588 43.2999 113.933 43.1758 114.189 42.9348C114.446 42.6938 114.591 42.3575 114.59 42.0057H114.59Z" fill="black"/>
<path fill-rule="evenodd" clip-rule="evenodd" d="M116.842 38.5501C116.845 38.3783 116.918 38.2152 117.043 38.0978C117.168 37.9804 117.336 37.9187 117.507 37.9268C117.676 37.914 117.843 37.9705 117.97 38.0832C118.096 38.196 118.171 38.3554 118.177 38.5246C118.157 38.8739 117.871 39.1487 117.521 39.1553C117.172 39.162 116.876 38.8983 116.842 38.5501V38.5501ZM116.982 39.9111H118.025V44.3631H116.982V39.9111Z" fill="black"/>
<path fill-rule="evenodd" clip-rule="evenodd" d="M123.778 41.8106V44.3546H122.735V41.9378C122.735 41.1449 122.345 40.7633 121.679 40.7633C120.937 40.7633 120.433 41.2128 120.433 42.1032V44.3546H119.394V39.9111H120.386V40.4877C120.776 40.0556 121.34 39.8232 121.921 39.856C122.985 39.856 123.778 40.4708 123.778 41.8106V41.8106Z" fill="black"/>
<path fill-rule="evenodd" clip-rule="evenodd" d="M131.347 35.5185C131.626 36.0394 131.683 36.6511 131.504 37.2145C131.32 37.7783 131.008 38.292 130.592 38.7154C129.742 39.5362 128.693 40.1208 127.548 40.4114C127.268 39.1818 127.946 37.8674 128.332 37.2484C128.939 36.2435 130.651 34.7977 131.343 35.5185" fill="#8FC5A3"/>
<path fill-rule="evenodd" clip-rule="evenodd" d="M127.344 42.5654C127.627 41.9511 128.221 41.5388 128.896 41.4884C129.558 41.4462 130.209 41.6689 130.706 42.1074C130.952 42.2884 131.106 42.5668 131.13 42.8706C131.103 43.1583 130.926 43.41 130.664 43.5321C130.396 43.645 130.104 43.6873 129.816 43.655C128.845 43.583 127.921 43.3413 127.335 42.5654" fill="#8FC5A3"/>
<path fill-rule="evenodd" clip-rule="evenodd" d="M124.897 44.007C125.057 43.8138 125.238 43.6388 125.436 43.4854C125.645 43.3092 125.874 43.1583 126.119 43.036C126.412 42.8739 126.717 42.7323 127.03 42.612C127.605 42.3954 128.224 42.324 128.832 42.4042C129.015 42.4309 129.194 42.4778 129.366 42.5442C129.432 42.5646 129.494 42.5962 129.549 42.6374C129.549 42.6374 129.273 42.5442 128.819 42.4933C128.227 42.4423 127.63 42.5234 127.073 42.7307C126.766 42.8469 126.466 42.98 126.174 43.1293C125.932 43.2455 125.703 43.3877 125.491 43.5533C125.304 43.7179 125.105 43.8695 124.897 44.007L124.897 44.007Z" fill="#004040"/>
<path fill-rule="evenodd" clip-rule="evenodd" d="M130.143 36.7354C130.086 36.8505 130.021 36.9611 129.948 37.0661C129.816 37.2696 129.625 37.5664 129.384 37.9141C128.9 38.6391 128.218 39.6313 127.442 40.7125C126.666 41.7937 125.928 42.7519 125.385 43.4345C125.114 43.778 124.889 44.0493 124.732 44.2359C124.655 44.3358 124.57 44.4294 124.478 44.5158C124.54 44.4056 124.612 44.3019 124.694 44.2062L125.313 43.3582C125.839 42.6629 126.56 41.7004 127.336 40.6192L129.32 37.8802L129.922 37.0322C129.987 36.9271 130.061 36.8278 130.143 36.7354V36.7354Z" fill="#004040"/>
<path fill-rule="evenodd" clip-rule="evenodd" d="M125.928 42.0693C126.378 40.7373 126.161 39.2699 125.343 38.1261C125.135 37.842 124.817 37.5579 124.495 37.6427C124.172 37.7275 124.003 38.1303 123.96 38.4907C123.801 39.9879 124.559 41.4337 125.881 42.1541" fill="#8FC5A3"/>
<path fill-rule="evenodd" clip-rule="evenodd" d="M125.08 39.1182C125.08 39.1182 125.126 39.1733 125.194 39.2836C125.262 39.3938 125.347 39.5549 125.449 39.7627C125.713 40.3038 125.875 40.8887 125.928 41.4884C125.95 41.822 125.918 42.1569 125.835 42.4805C125.763 42.7513 125.651 43.0099 125.504 43.248C125.409 43.3986 125.301 43.5405 125.182 43.672C125.141 43.7239 125.094 43.7709 125.042 43.8119C125.02 43.8119 125.207 43.5787 125.428 43.1844C125.552 42.9539 125.647 42.7089 125.712 42.4551C125.787 42.143 125.814 41.8214 125.792 41.5011C125.733 40.9155 125.582 40.343 125.343 39.8051C125.244 39.5807 125.156 39.3514 125.08 39.1182V39.1182Z" fill="#004040"/>
<path fill-rule="evenodd" clip-rule="evenodd" d="M158.5 73.0934C158.675 73.084 158.842 73.0135 158.97 72.8941C159.28 72.6524 159.149 72.08 159.174 71.4101C159.174 70.0448 159.174 68.0181 159.153 65.4486C159.153 64.7999 159.153 64.1173 159.153 63.3965V62.8538C159.163 62.6721 159.152 62.4899 159.119 62.311C159.062 62.142 158.938 62.004 158.775 61.9294C158.597 61.8678 158.407 61.8475 158.22 61.8701H153.094H140.599L68.2303 61.8998C68.0412 61.8994 67.8632 61.9892 67.7511 62.1415C67.6453 62.3107 67.6046 62.5126 67.6366 62.7096L67.6366 71.8553C67.6366 72.0588 67.6366 72.3047 67.6366 72.4786C67.6667 72.6623 67.7835 72.8202 67.9504 72.9026C68.0302 72.9444 68.119 72.9663 68.2091 72.9662H76.7654H95.9811L128.515 72.9916L150.448 73.0255L156.41 73.0467H157.961H158.491H157.961H156.41L150.448 73.0679L128.515 73.1019L95.9811 73.1273H68.2091C67.8212 73.1254 67.4898 72.8474 67.4204 72.4659C67.3907 72.2157 67.4204 72.0419 67.4204 71.8044V62.752C67.4145 62.6362 67.4145 62.5201 67.4204 62.4043C67.4387 62.2782 67.4883 62.1587 67.5646 62.0566C67.7171 61.8459 67.9616 61.7213 68.2218 61.7217L140.59 61.7556H153.085H158.212C158.414 61.7335 158.618 61.7582 158.809 61.8277C158.993 61.9098 159.135 62.0628 159.204 62.2517C159.241 62.44 159.254 62.6324 159.242 62.8241C159.242 63.0064 159.242 63.1887 159.242 63.3668C159.242 64.0876 159.242 64.7702 159.242 65.419C159.242 68.0054 159.242 70.0151 159.221 71.3804C159.221 71.7238 159.221 72.0206 159.221 72.2835C159.257 72.5215 159.175 72.7624 159 72.928C158.865 73.0519 158.683 73.112 158.5 73.0934V73.0934Z" fill="#E0E0E0"/>
<path fill-rule="evenodd" clip-rule="evenodd" d="M87.594 81.408V81.7472H87.5092C87.2655 81.7454 87.0328 81.8486 86.8705 82.0304C86.7082 82.2122 86.6319 82.455 86.6612 82.6969V84.0028H86.3135V81.4589H86.6442V81.9592C86.8165 81.5969 87.1939 81.3778 87.594 81.408V81.408Z" fill="#004040"/>
<path fill-rule="evenodd" clip-rule="evenodd" d="M90.5323 80.3861V84.0071H90.2016V83.4983C89.9938 83.8427 89.6156 84.0472 89.2136 84.0325C88.4924 84.0325 87.9077 83.4479 87.9077 82.7266C87.9077 82.0054 88.4924 81.4207 89.2136 81.4207C89.605 81.4095 89.9741 81.6021 90.1888 81.9295L90.1888 80.3861L90.5323 80.3861ZM90.1931 82.7224C90.1676 82.2018 89.729 81.798 89.2081 81.8156C88.6872 81.8331 88.2767 82.2655 88.2864 82.7866C88.296 83.3078 88.7221 83.7247 89.2433 83.723C89.5055 83.7272 89.7574 83.6213 89.9378 83.4312C90.1183 83.241 90.2109 82.984 90.1931 82.7224V82.7224Z" fill="#004040"/>
<path fill-rule="evenodd" clip-rule="evenodd" d="M77.8164 93.1528V94.641H77.473V93.1867C77.5049 92.9698 77.4358 92.7501 77.2854 92.5906C77.1349 92.431 76.9197 92.3492 76.7013 92.3684C76.4538 92.3525 76.2118 92.4457 76.0389 92.6234C75.866 92.8012 75.7796 93.0458 75.8024 93.2927V94.641H75.4717V92.0758H75.8024V92.5465C76.014 92.2176 76.3873 92.0294 76.7776 92.0546C77.0695 92.0347 77.355 92.1462 77.556 92.3587C77.757 92.5712 77.8525 92.8625 77.8164 93.1528V93.1528Z" fill="#E0E0E0"/>
<path fill-rule="evenodd" clip-rule="evenodd" d="M80.1105 94.4841C79.9573 94.608 79.7647 94.6726 79.5678 94.6665C79.3633 94.6895 79.1594 94.6185 79.0135 94.4734C78.8676 94.3283 78.7954 94.1248 78.8173 93.9202L78.8173 92.3684H78.3594V92.0758H78.8173V91.5119H79.165V92.0758H79.9451V92.3684H79.165V93.899C79.153 94.0186 79.1923 94.1377 79.2731 94.2266C79.354 94.3156 79.4688 94.366 79.589 94.3654C79.728 94.3702 79.8639 94.3234 79.9706 94.234L80.1105 94.4841Z" fill="#E0E0E0"/>
<path fill-rule="evenodd" clip-rule="evenodd" d="M82.8793 93.4623H80.7338C80.748 93.7151 80.8626 93.9518 81.0521 94.1198C81.2415 94.2878 81.4903 94.3732 81.743 94.3569C82.0412 94.3673 82.3286 94.2446 82.5274 94.022L82.7224 94.2467C82.3452 94.6408 81.7687 94.7708 81.2589 94.5765C80.7492 94.3822 80.4053 93.9015 80.3862 93.3563C80.367 93.0107 80.4938 92.673 80.7357 92.4255C80.9775 92.1779 81.3123 92.0434 81.6582 92.0546C82.0002 92.0479 82.3293 92.185 82.5654 92.4324C82.8016 92.6799 82.9231 93.015 82.9005 93.3563C82.8835 93.386 82.8793 93.4241 82.8793 93.4623V93.4623ZM80.7338 93.2079H82.5528C82.5201 92.7297 82.1227 92.3584 81.6433 92.3584C81.164 92.3584 80.7665 92.7297 80.7338 93.2079V93.2079Z" fill="#E0E0E0"/>
<path fill-rule="evenodd" clip-rule="evenodd" d="M84.8846 92.0546V92.3896H84.7998C84.557 92.388 84.3251 92.4906 84.1629 92.6714C84.0008 92.8522 83.9239 93.0938 83.9518 93.3351V94.6453H83.6084V92.0801H83.9391V92.5804C84.1184 92.2295 84.492 92.0218 84.8846 92.0546H84.8846Z" fill="#E0E0E0"/>
<path fill-rule="evenodd" clip-rule="evenodd" d="M158.5 99.0337C158.676 99.0236 158.843 98.9515 158.97 98.8302C159.28 98.5927 159.149 98.0161 159.174 97.3504C159.174 95.9809 159.174 93.9584 159.153 91.3847C159.153 90.7402 159.153 90.0534 159.153 89.3368V88.7899C159.163 88.6096 159.152 88.4288 159.119 88.2514C159.061 88.082 158.937 87.9431 158.775 87.8655C158.597 87.8059 158.407 87.7857 158.22 87.8062H153.094H140.599L68.2303 87.8401C68.0407 87.8376 67.8618 87.9279 67.7511 88.0818C67.6449 88.2509 67.6042 88.4529 67.6366 88.6499L67.6366 97.8168C67.6366 98.0246 67.6366 98.2705 67.6366 98.4443C67.6686 98.6272 67.7849 98.7843 67.9504 98.8683C68.0309 98.9083 68.1192 98.93 68.2091 98.9319H76.7654H95.9811H128.515L150.448 98.9658H156.41H157.961H158.491H157.961H156.41H150.448L128.515 98.9998L95.9811 99.0252H68.2091C67.8226 99.0237 67.4916 98.7479 67.4204 98.368C67.3907 98.1136 67.4204 97.944 67.4204 97.7023V88.6754C67.4145 88.5596 67.4145 88.4435 67.4204 88.3277C67.4385 88.2002 67.4881 88.0793 67.5646 87.9758C67.7176 87.7661 67.9622 87.643 68.2218 87.645L140.59 87.6747H153.085H158.212C158.414 87.6548 158.618 87.6794 158.809 87.7468C158.997 87.8355 159.14 87.9983 159.204 88.1962C159.241 88.3832 159.254 88.5742 159.242 88.7644C159.242 88.951 159.242 89.129 159.242 89.3114C159.242 90.0279 159.242 90.7148 159.242 91.3593C159.242 93.9457 159.242 95.9554 159.221 97.325C159.221 97.6642 159.221 97.9652 159.221 98.2238C159.241 98.4478 159.156 98.6683 158.992 98.8217C158.865 98.9585 158.686 99.0355 158.5 99.0337V99.0337Z" fill="#E0E0E0"/>
<path fill-rule="evenodd" clip-rule="evenodd" d="M67.522 117.88V116.935C67.522 115.639 67.9802 114.533 68.8967 113.616C69.8132 112.7 70.9195 112.241 72.2157 112.241H154.501C155.797 112.241 156.904 112.7 157.82 113.616C158.737 114.533 159.195 115.639 159.195 116.935V117.88V118.826C159.195 120.122 158.737 121.228 157.82 122.145C156.904 123.061 155.797 123.52 154.501 123.52H72.2157C70.9195 123.52 69.8132 123.061 68.8967 122.145C67.9802 121.228 67.522 120.122 67.522 118.826V117.88Z" fill="#8FC5A3"/>
<path fill-rule="evenodd" clip-rule="evenodd" d="M106.352 115.875H106.712V118.979H108.624V119.292H106.352V115.875Z" fill="white"/>
<path fill-rule="evenodd" clip-rule="evenodd" d="M108.853 118.008C108.854 117.287 109.437 116.703 110.158 116.702C110.879 116.701 111.464 117.284 111.465 118.005C111.467 118.726 110.884 119.311 110.164 119.314C109.814 119.324 109.475 119.19 109.227 118.943C108.979 118.696 108.844 118.358 108.853 118.008V118.008ZM111.113 118.008C111.088 117.487 110.649 117.083 110.128 117.101C109.607 117.118 109.197 117.551 109.207 118.072C109.216 118.593 109.642 119.01 110.164 119.008C110.426 119.012 110.678 118.907 110.858 118.716C111.039 118.526 111.131 118.269 111.113 118.008V118.008Z" fill="white"/>
<path fill-rule="evenodd" clip-rule="evenodd" d="M114.548 116.723V118.979C114.548 119.861 114.124 120.251 113.276 120.251C112.842 120.268 112.418 120.128 112.08 119.856L112.258 119.593C112.54 119.83 112.899 119.955 113.267 119.945C113.916 119.945 114.213 119.649 114.213 119.013V118.686C113.986 119.012 113.609 119.199 113.212 119.182C112.767 119.184 112.355 118.947 112.132 118.562C111.909 118.177 111.909 117.702 112.132 117.317C112.355 116.932 112.767 116.696 113.212 116.698C113.617 116.678 114.002 116.873 114.225 117.211V116.714L114.548 116.723ZM114.208 117.944C114.222 117.547 113.994 117.181 113.631 117.019C113.267 116.858 112.843 116.932 112.557 117.208C112.271 117.485 112.181 117.906 112.33 118.275C112.478 118.644 112.836 118.885 113.233 118.885C113.491 118.902 113.743 118.81 113.929 118.63C114.115 118.451 114.216 118.202 114.208 117.944H114.208Z" fill="white"/>
<path fill-rule="evenodd" clip-rule="evenodd" d="M116.714 115.913C116.714 115.773 116.828 115.659 116.969 115.659C117.109 115.659 117.223 115.773 117.223 115.913C117.223 116.054 117.109 116.168 116.969 116.168C116.828 116.168 116.714 116.054 116.714 115.913V115.913ZM116.791 116.723H117.215V119.292H116.791V116.723Z" fill="white"/>
<path fill-rule="evenodd" clip-rule="evenodd" d="M120.467 117.804V119.292H120.119V117.838C120.151 117.621 120.082 117.401 119.931 117.241C119.781 117.081 119.566 116.998 119.347 117.016C119.099 116.999 118.856 117.093 118.683 117.272C118.51 117.451 118.424 117.696 118.448 117.944V119.292H118.105V116.723H118.436V117.198C118.647 116.868 119.02 116.68 119.411 116.706C119.705 116.682 119.995 116.792 120.199 117.005C120.404 117.218 120.502 117.511 120.467 117.804V117.804Z" fill="white"/>
<mask id="mask0_1_3584" style="mask-type:alpha" maskUnits="userSpaceOnUse" x="0" y="0" width="212" height="212">
<rect width="212" height="212" fill="white"/>
</mask>
<g mask="url(#mask0_1_3584)">
<path d="M73 91C72.1667 91 71.5 91.625 71.5 92.4062V93.0312C71.2167 93.0312 71 93.2344 71 93.5V95.5312C71 95.7969 71.2167 96 71.5 96H74.5C74.7833 96 75 95.7969 75 95.5312V93.5C75 93.2344 74.7833 93.0312 74.5 93.0312V92.4062C74.5 91.625 73.8333 91 73 91ZM74.6667 93.5V95.5312C74.6667 95.625 74.6 95.6875 74.5 95.6875H71.5C71.4 95.6875 71.3333 95.625 71.3333 95.5312V93.5C71.3333 93.4062 71.4 93.3438 71.5 93.3438H71.6667H74.3333H74.5C74.6 93.3438 74.6667 93.4062 74.6667 93.5ZM71.8333 93.0312V92.4062C71.8333 91.7969 72.35 91.3125 73 91.3125C73.65 91.3125 74.1667 91.7969 74.1667 92.4062V93.0312H71.8333Z" fill="#A1A1A1"/>
</g>
<path d="M82.6096 95H80.7296V91.43H82.6096V91.825H81.1746V92.94H82.5246V93.33H81.1746V94.605H82.6096V95ZM86.0818 95H85.5568L83.7868 92.035H83.7668C83.7701 92.095 83.7735 92.1617 83.7768 92.235C83.7835 92.3083 83.7885 92.3883 83.7918 92.475C83.7951 92.5583 83.7985 92.645 83.8018 92.735C83.8051 92.825 83.8068 92.915 83.8068 93.005V95H83.3968V91.43H83.9168L85.6818 94.385H85.7018C85.6985 94.345 85.6951 94.29 85.6918 94.22C85.6885 94.1467 85.6851 94.0667 85.6818 93.98C85.6785 93.89 85.6751 93.7983 85.6718 93.705C85.6685 93.6117 85.6668 93.525 85.6668 93.445V91.43H86.0818V95ZM88.1205 95H87.6755V91.825H86.6355V91.43H89.1505V91.825H88.1205V95ZM91.5926 95H89.7126V91.43H91.5926V91.825H90.1576V92.94H91.5076V93.33H90.1576V94.605H91.5926V95ZM93.3098 91.43C93.5898 91.43 93.8198 91.4683 93.9998 91.545C94.1831 91.6183 94.3181 91.73 94.4048 91.88C94.4948 92.03 94.5398 92.2183 94.5398 92.445C94.5398 92.635 94.5065 92.7933 94.4398 92.92C94.3765 93.0467 94.2931 93.1483 94.1898 93.225C94.0898 93.2983 93.9831 93.3567 93.8698 93.4L94.7998 95H94.2798L93.4698 93.525H92.8248V95H92.3798V91.43H93.3098ZM93.2848 91.82H92.8248V93.145H93.3048C93.4848 93.145 93.6315 93.12 93.7448 93.07C93.8615 93.0167 93.9465 92.94 93.9998 92.84C94.0531 92.74 94.0798 92.615 94.0798 92.465C94.0798 92.3083 94.0515 92.1833 93.9948 92.09C93.9381 91.9967 93.8498 91.9283 93.7298 91.885C93.6131 91.8417 93.4648 91.82 93.2848 91.82ZM97.54 91.43C97.98 91.43 98.3 91.5217 98.5 91.705C98.7 91.8883 98.8 92.1467 98.8 92.48C98.8 92.6267 98.7766 92.7683 98.73 92.905C98.6866 93.0383 98.6133 93.1583 98.51 93.265C98.4066 93.3717 98.2683 93.4567 98.095 93.52C97.925 93.58 97.715 93.61 97.465 93.61H97.085V95H96.64V91.43H97.54ZM97.505 91.815H97.085V93.225H97.415C97.6216 93.225 97.7933 93.2017 97.93 93.155C98.0666 93.105 98.1683 93.0267 98.235 92.92C98.305 92.8133 98.34 92.6733 98.34 92.5C98.34 92.27 98.2716 92.0983 98.135 91.985C98.0016 91.8717 97.7916 91.815 97.505 91.815ZM101.412 95L101.022 93.895H99.697L99.312 95H98.857L100.157 91.415H100.577L101.872 95H101.412ZM100.522 92.415C100.515 92.3883 100.5 92.34 100.477 92.27C100.457 92.2 100.435 92.1283 100.412 92.055C100.392 91.9783 100.375 91.92 100.362 91.88C100.345 91.9467 100.327 92.015 100.307 92.085C100.29 92.1517 100.274 92.2133 100.257 92.27C100.24 92.3267 100.225 92.375 100.212 92.415L99.842 93.495H100.892L100.522 92.415ZM104.29 94.045C104.29 94.2583 104.24 94.44 104.14 94.59C104.043 94.7367 103.905 94.85 103.725 94.93C103.548 95.01 103.336 95.05 103.09 95.05C102.966 95.05 102.846 95.0433 102.73 95.03C102.616 95.0167 102.511 94.9983 102.415 94.975C102.321 94.9483 102.238 94.9167 102.165 94.88V94.45C102.281 94.5033 102.423 94.5517 102.59 94.595C102.76 94.6383 102.933 94.66 103.11 94.66C103.273 94.66 103.408 94.6367 103.515 94.59C103.625 94.5433 103.706 94.4767 103.76 94.39C103.816 94.3033 103.845 94.2017 103.845 94.085C103.845 93.9683 103.82 93.87 103.77 93.79C103.723 93.71 103.643 93.6367 103.53 93.57C103.416 93.5 103.261 93.4267 103.065 93.35C102.925 93.2933 102.801 93.2333 102.695 93.17C102.588 93.1033 102.498 93.0283 102.425 92.945C102.351 92.8617 102.296 92.7667 102.26 92.66C102.223 92.5533 102.205 92.43 102.205 92.29C102.205 92.1 102.25 91.9383 102.34 91.805C102.433 91.6683 102.56 91.5633 102.72 91.49C102.883 91.4167 103.071 91.38 103.285 91.38C103.468 91.38 103.636 91.3983 103.79 91.435C103.943 91.4717 104.085 91.52 104.215 91.58L104.075 91.965C103.955 91.9117 103.826 91.8667 103.69 91.83C103.556 91.7933 103.418 91.775 103.275 91.775C103.138 91.775 103.023 91.7967 102.93 91.84C102.84 91.8833 102.771 91.945 102.725 92.025C102.678 92.1017 102.655 92.1917 102.655 92.295C102.655 92.415 102.678 92.515 102.725 92.595C102.771 92.675 102.848 92.7467 102.955 92.81C103.061 92.8733 103.203 92.9417 103.38 93.015C103.576 93.0917 103.741 93.175 103.875 93.265C104.011 93.3517 104.115 93.4567 104.185 93.58C104.255 93.7033 104.29 93.8583 104.29 94.045ZM106.923 94.045C106.923 94.2583 106.873 94.44 106.773 94.59C106.676 94.7367 106.538 94.85 106.358 94.93C106.181 95.01 105.969 95.05 105.723 95.05C105.599 95.05 105.479 95.0433 105.363 95.03C105.249 95.0167 105.144 94.9983 105.048 94.975C104.954 94.9483 104.871 94.9167 104.798 94.88V94.45C104.914 94.5033 105.056 94.5517 105.223 94.595C105.393 94.6383 105.566 94.66 105.743 94.66C105.906 94.66 106.041 94.6367 106.148 94.59C106.258 94.5433 106.339 94.4767 106.393 94.39C106.449 94.3033 106.478 94.2017 106.478 94.085C106.478 93.9683 106.453 93.87 106.403 93.79C106.356 93.71 106.276 93.6367 106.163 93.57C106.049 93.5 105.894 93.4267 105.698 93.35C105.558 93.2933 105.434 93.2333 105.328 93.17C105.221 93.1033 105.131 93.0283 105.058 92.945C104.984 92.8617 104.929 92.7667 104.893 92.66C104.856 92.5533 104.838 92.43 104.838 92.29C104.838 92.1 104.883 91.9383 104.973 91.805C105.066 91.6683 105.193 91.5633 105.353 91.49C105.516 91.4167 105.704 91.38 105.918 91.38C106.101 91.38 106.269 91.3983 106.423 91.435C106.576 91.4717 106.718 91.52 106.848 91.58L106.708 91.965C106.588 91.9117 106.459 91.8667 106.323 91.83C106.189 91.7933 106.051 91.775 105.908 91.775C105.771 91.775 105.656 91.7967 105.563 91.84C105.473 91.8833 105.404 91.945 105.358 92.025C105.311 92.1017 105.288 92.1917 105.288 92.295C105.288 92.415 105.311 92.515 105.358 92.595C105.404 92.675 105.481 92.7467 105.588 92.81C105.694 92.8733 105.836 92.9417 106.013 93.015C106.209 93.0917 106.374 93.175 106.508 93.265C106.644 93.3517 106.748 93.4567 106.818 93.58C106.888 93.7033 106.923 93.8583 106.923 94.045ZM111.516 91.43L110.626 95H110.171L109.536 92.66C109.516 92.59 109.496 92.5183 109.476 92.445C109.459 92.3717 109.442 92.3017 109.426 92.235C109.409 92.1683 109.396 92.1117 109.386 92.065C109.376 92.015 109.369 91.9783 109.366 91.955C109.362 91.9783 109.356 92.015 109.346 92.065C109.336 92.1117 109.324 92.1683 109.311 92.235C109.297 92.3017 109.281 92.3733 109.261 92.45C109.244 92.5233 109.226 92.5983 109.206 92.675L108.586 95H108.126L107.241 91.43H107.706L108.221 93.61C108.237 93.6867 108.254 93.7633 108.271 93.84C108.287 93.9133 108.301 93.9867 108.311 94.06C108.324 94.13 108.336 94.1983 108.346 94.265C108.359 94.3317 108.369 94.3967 108.376 94.46C108.386 94.3933 108.396 94.325 108.406 94.255C108.419 94.185 108.432 94.1133 108.446 94.04C108.462 93.9633 108.479 93.8867 108.496 93.81C108.516 93.7333 108.536 93.6583 108.556 93.585L109.136 91.43H109.596L110.201 93.6C110.221 93.6767 110.239 93.755 110.256 93.835C110.276 93.9117 110.292 93.9867 110.306 94.06C110.322 94.1333 110.336 94.205 110.346 94.275C110.359 94.3417 110.371 94.4033 110.381 94.46C110.391 94.3767 110.404 94.29 110.421 94.2C110.437 94.1067 110.456 94.01 110.476 93.91C110.499 93.81 110.522 93.7083 110.546 93.605L111.056 91.43H111.516ZM114.967 93.21C114.967 93.4867 114.933 93.7383 114.867 93.965C114.8 94.1883 114.702 94.3817 114.572 94.545C114.442 94.7083 114.28 94.8333 114.087 94.92C113.893 95.0067 113.67 95.05 113.417 95.05C113.153 95.05 112.923 95.0067 112.727 94.92C112.533 94.83 112.372 94.705 112.242 94.545C112.115 94.3817 112.02 94.1867 111.957 93.96C111.893 93.7333 111.862 93.4817 111.862 93.205C111.862 92.8383 111.918 92.5183 112.032 92.245C112.145 91.9717 112.317 91.7583 112.547 91.605C112.78 91.4517 113.072 91.375 113.422 91.375C113.758 91.375 114.042 91.4517 114.272 91.605C114.502 91.755 114.675 91.9683 114.792 92.245C114.908 92.5183 114.967 92.84 114.967 93.21ZM112.332 93.21C112.332 93.51 112.37 93.7683 112.447 93.985C112.523 94.2017 112.642 94.3683 112.802 94.485C112.965 94.6017 113.17 94.66 113.417 94.66C113.667 94.66 113.872 94.6017 114.032 94.485C114.192 94.3683 114.308 94.2017 114.382 93.985C114.458 93.7683 114.497 93.51 114.497 93.21C114.497 92.76 114.41 92.4083 114.237 92.155C114.067 91.8983 113.795 91.77 113.422 91.77C113.172 91.77 112.965 91.8283 112.802 91.945C112.642 92.0583 112.523 92.2233 112.447 92.44C112.37 92.6533 112.332 92.91 112.332 93.21ZM116.688 91.43C116.968 91.43 117.198 91.4683 117.378 91.545C117.562 91.6183 117.697 91.73 117.783 91.88C117.873 92.03 117.918 92.2183 117.918 92.445C117.918 92.635 117.885 92.7933 117.818 92.92C117.755 93.0467 117.672 93.1483 117.568 93.225C117.468 93.2983 117.362 93.3567 117.248 93.4L118.178 95H117.658L116.848 93.525H116.203V95H115.758V91.43H116.688ZM116.663 91.82H116.203V93.145H116.683C116.863 93.145 117.01 93.12 117.123 93.07C117.24 93.0167 117.325 92.94 117.378 92.84C117.432 92.74 117.458 92.615 117.458 92.465C117.458 92.3083 117.43 92.1833 117.373 92.09C117.317 91.9967 117.228 91.9283 117.108 91.885C116.992 91.8417 116.843 91.82 116.663 91.82ZM121.443 93.18C121.443 93.58 121.373 93.915 121.233 94.185C121.093 94.455 120.891 94.6583 120.628 94.795C120.368 94.9317 120.053 95 119.683 95H118.748V91.43H119.783C120.123 91.43 120.416 91.4967 120.663 91.63C120.913 91.7633 121.104 91.96 121.238 92.22C121.374 92.4767 121.443 92.7967 121.443 93.18ZM120.973 93.195C120.973 92.8783 120.924 92.6183 120.828 92.415C120.731 92.2117 120.589 92.0617 120.403 91.965C120.219 91.865 119.994 91.815 119.728 91.815H119.193V94.615H119.638C120.084 94.615 120.418 94.4967 120.638 94.26C120.861 94.02 120.973 93.665 120.973 93.195Z" fill="#A1A1A1"/>
<path fill-rule="evenodd" clip-rule="evenodd" d="M19.7579 186.912L19.2109 190.028L19.6731 190.13C21.7422 190.554 30.218 192.212 31.6765 192.004C33.3047 191.771 27.1058 189.333 27.1058 189.333L27.3009 188.014L19.7579 186.912Z" fill="#8FC5A3"/>
<g opacity="0.5">
<path fill-rule="evenodd" clip-rule="evenodd" d="M21.9586 190.376C21.9463 189.721 21.6909 189.094 21.242 188.616C20.8029 188.135 20.1959 187.841 19.5461 187.794L19.2153 189.914L21.9586 190.376Z" fill="white"/>
</g>
<g opacity="0.5">
<path fill-rule="evenodd" clip-rule="evenodd" d="M30.1035 190.635C30.1035 190.635 32.2532 191.635 31.9182 191.962C31.5833 192.288 22.9506 190.953 19.1982 190.028L19.2364 189.863L29.2852 191.508C29.2852 191.508 29.6795 190.588 30.1035 190.635V190.635Z" fill="white"/>
</g>
<path fill-rule="evenodd" clip-rule="evenodd" d="M19.1309 189.838C19.1714 189.855 19.2143 189.866 19.2581 189.871L19.6269 189.952L20.9922 190.223C22.1455 190.448 23.744 190.732 25.5121 191.008C27.2801 191.283 28.9041 191.495 30.0616 191.635L31.4438 191.792L31.8212 191.83H31.9526L31.8212 191.805L31.4481 191.754L30.0701 191.567C28.9041 191.411 27.2971 191.186 25.529 190.91C23.7609 190.635 22.137 190.359 21.0049 190.156L19.6354 189.914L19.2623 189.85L19.1309 189.838Z" fill="#004040"/>
<path fill-rule="evenodd" clip-rule="evenodd" d="M29.2769 191.623C29.3745 191.405 29.4954 191.199 29.6373 191.008C29.8019 190.836 29.9853 190.684 30.1842 190.554C29.9358 190.604 29.715 190.744 29.5652 190.948C29.3913 191.131 29.289 191.37 29.2769 191.623V191.623Z" fill="#004040"/>
<path fill-rule="evenodd" clip-rule="evenodd" d="M27.2246 190.147C27.2246 190.147 27.3687 190.049 27.5087 189.893C27.6486 189.736 27.7376 189.596 27.7207 189.579C27.7037 189.562 27.5723 189.676 27.4366 189.833C27.3009 189.99 27.2034 190.13 27.2246 190.147V190.147Z" fill="#004040"/>
<path fill-rule="evenodd" clip-rule="evenodd" d="M26.6607 189.799C26.6607 189.799 26.8091 189.753 26.9575 189.636C27.1059 189.518 27.2119 189.406 27.1991 189.38C27.1864 189.355 27.055 189.426 26.9066 189.544C26.7582 189.661 26.6479 189.774 26.6607 189.799V189.799Z" fill="#004040"/>
<path fill-rule="evenodd" clip-rule="evenodd" d="M26.3852 188.956C25.4429 189.021 24.7146 189.809 24.7237 190.754C24.7328 191.698 25.4762 192.472 26.4196 192.519C27.3629 192.566 28.1798 191.87 28.283 190.932C28.3863 189.993 27.7402 189.136 26.8092 188.977C26.6717 188.935 26.5261 188.928 26.3852 188.956V188.956Z" fill="#004040"/>
<path fill-rule="evenodd" clip-rule="evenodd" d="M26.3301 188.43C26.4478 188.625 26.5957 188.75 26.7541 188.789C26.9058 188.876 27.0687 188.876 27.2205 188.789C27.082 188.708 26.9402 188.647 26.7965 188.606C26.6441 188.523 26.488 188.464 26.3301 188.43V188.43Z" fill="#004040"/>
<path fill-rule="evenodd" clip-rule="evenodd" d="M27.5811 189.528C27.7389 189.577 27.9034 189.601 28.0687 189.6C28.2474 189.604 28.4261 189.593 28.6029 189.566C28.7099 189.552 28.815 189.526 28.9167 189.49C28.9793 189.465 29.0307 189.419 29.0608 189.358C29.0888 189.287 29.0722 189.205 29.0184 189.151C28.6655 188.905 28.1884 188.942 27.8779 189.24C27.7875 189.325 27.7154 189.427 27.6659 189.541C27.6362 189.621 27.6277 189.668 27.6362 189.672C27.7073 189.529 27.8036 189.4 27.9203 189.291C28.0505 189.181 28.2093 189.11 28.3782 189.087C28.5783 189.05 28.7851 189.095 28.9506 189.214C29.0184 189.282 28.9506 189.371 28.8785 189.405C28.7856 189.441 28.6889 189.467 28.5902 189.481C28.4181 189.513 28.2436 189.53 28.0686 189.532C27.7719 189.528 27.5853 189.528 27.5811 189.528V189.528Z" fill="#004040"/>
<path fill-rule="evenodd" clip-rule="evenodd" d="M27.704 189.57C27.704 189.57 27.8015 189.464 27.8142 189.244C27.8182 189.113 27.7906 188.984 27.7337 188.867C27.6739 188.707 27.536 188.59 27.369 188.557C27.3184 188.559 27.2708 188.581 27.2366 188.619C27.2023 188.656 27.1844 188.706 27.1867 188.756C27.1858 188.836 27.2017 188.916 27.2334 188.99C27.2807 189.105 27.3419 189.215 27.4157 189.316C27.5471 189.49 27.6574 189.566 27.6658 189.558C27.6743 189.549 27.581 189.456 27.4708 189.282C27.4077 189.179 27.3551 189.069 27.3139 188.956C27.263 188.845 27.2461 188.655 27.369 188.65C27.492 188.646 27.598 188.799 27.6574 188.905C27.7104 189.01 27.7407 189.126 27.7464 189.244C27.7431 189.354 27.7289 189.463 27.704 189.57V189.57Z" fill="#004040"/>
<path fill-rule="evenodd" clip-rule="evenodd" d="M19.6055 187.794C19.6055 187.794 19.8217 187.794 20.1609 187.9C20.5973 188.021 20.9919 188.26 21.3015 188.591C21.604 188.928 21.8092 189.342 21.8951 189.787C21.9587 190.126 21.9375 190.346 21.9544 190.346C21.971 190.297 21.9796 190.246 21.9799 190.194C21.9861 190.052 21.979 189.91 21.9587 189.77C21.8906 189.305 21.6854 188.871 21.3693 188.523C21.0471 188.181 20.6313 187.94 20.1736 187.832C20.0345 187.8 19.8924 187.783 19.7496 187.781C19.7012 187.777 19.6524 187.781 19.6055 187.794V187.794Z" fill="#004040"/>
<path fill-rule="evenodd" clip-rule="evenodd" d="M23.0229 189.804C23.3721 189.96 23.7366 190.067 24.1084 190.123C24.4763 190.21 24.8527 190.241 25.2277 190.215C25.2277 190.186 24.7317 190.133 24.1253 190.017C23.519 189.901 23.0314 189.775 23.0229 189.804V189.804Z" fill="#004040"/>
<path fill-rule="evenodd" clip-rule="evenodd" d="M21.5518 189.57C21.4975 189.57 21.617 189.681 21.693 189.804C21.769 189.927 21.8124 190.028 21.8776 190.033C21.9428 190.037 22.0296 189.918 21.8776 189.778C21.7256 189.638 21.5952 189.553 21.5518 189.57V189.57Z" fill="#004040"/>
<path fill-rule="evenodd" clip-rule="evenodd" d="M21.0938 188.791C21.0938 188.791 21.0938 188.92 21.2331 189.032C21.3724 189.145 21.4678 189.225 21.5044 189.209C21.5411 189.193 21.5044 189.081 21.3651 188.963C21.2258 188.845 21.1304 188.77 21.0938 188.791V188.791Z" fill="#004040"/>
<path fill-rule="evenodd" clip-rule="evenodd" d="M20.3516 188.371C20.3516 188.415 20.4569 188.438 20.5666 188.541C20.6763 188.645 20.7465 188.764 20.7684 188.742C20.7903 188.719 20.7684 188.512 20.6104 188.393C20.4525 188.274 20.3516 188.326 20.3516 188.371V188.371Z" fill="#004040"/>
<path fill-rule="evenodd" clip-rule="evenodd" d="M19.7964 188.137C19.7964 188.137 19.8457 188.331 19.9608 188.429C20.0759 188.526 20.191 188.55 20.2156 188.489C20.2403 188.428 20.1663 188.295 20.0512 188.198C19.9361 188.1 19.8211 188.064 19.7964 188.137V188.137Z" fill="#004040"/>
<path fill-rule="evenodd" clip-rule="evenodd" d="M59.5293 189.575L59.8134 192.729L60.2883 192.708C62.4083 192.589 71.007 191.962 72.3638 191.381C73.8732 190.732 67.2758 189.999 67.2758 189.999L67.1189 188.676L59.5293 189.575Z" fill="#8FC5A3"/>
<g opacity="0.5">
<path fill-rule="evenodd" clip-rule="evenodd" d="M62.561 192.365C62.3779 191.735 61.9686 191.196 61.4119 190.851C60.8648 190.506 60.2081 190.379 59.5718 190.495L59.8092 192.615L62.561 192.365Z" fill="white"/>
</g>
<g opacity="0.5">
<path fill-rule="evenodd" clip-rule="evenodd" d="M70.5025 190.469C70.5025 190.469 72.8388 190.868 72.5971 191.275C72.3554 191.682 63.6931 192.64 59.8135 192.729V192.56L69.9598 191.521C69.9598 191.521 70.0616 190.537 70.5025 190.469V190.469Z" fill="white"/>
</g>
<path fill-rule="evenodd" clip-rule="evenodd" d="M59.686 192.568H59.8175L60.1948 192.547L61.5856 192.454C62.7558 192.365 64.3712 192.225 66.1563 192.03C67.9413 191.835 69.5483 191.606 70.71 191.449L72.0796 191.224L72.4527 191.16C72.4956 191.155 72.5381 191.146 72.5799 191.135H72.4484L72.0796 191.224L70.6973 191.406C69.5356 191.559 67.9244 191.762 66.1436 191.957C64.3627 192.153 62.7516 192.305 61.5771 192.411L60.2076 192.496L59.8302 192.53L59.686 192.568Z" fill="#004040"/>
<path fill-rule="evenodd" clip-rule="evenodd" d="M69.9597 191.648C69.9927 191.413 70.0539 191.182 70.142 190.961C70.2613 190.752 70.4035 190.557 70.566 190.38C70.3405 190.495 70.1643 190.688 70.0699 190.923C69.9419 191.142 69.9025 191.401 69.9597 191.648V191.648Z" fill="#004040"/>
<path fill-rule="evenodd" clip-rule="evenodd" d="M67.5825 190.753C67.6092 190.753 67.7266 190.622 67.844 190.431C67.9285 190.323 67.9814 190.201 67.9987 190.075C67.9987 190.075 67.8546 190.206 67.7372 190.393C67.6199 190.579 67.5505 190.741 67.5825 190.753V190.753Z" fill="#004040"/>
<path fill-rule="evenodd" clip-rule="evenodd" d="M66.9281 190.495C66.9493 190.495 67.0596 190.418 67.1783 190.287C67.297 190.156 67.3733 190.033 67.3564 190.016C67.3394 189.999 67.2249 190.092 67.1062 190.223C66.9875 190.355 66.9112 190.478 66.9281 190.495V190.495Z" fill="#004040"/>
<path fill-rule="evenodd" clip-rule="evenodd" d="M66.4619 190.057C66.5942 190.158 66.7324 190.158 66.8647 190.057C66.9995 190.063 67.1329 189.972 67.2548 189.793C67.1157 189.681 66.9698 189.681 66.8308 189.793C66.7032 189.797 66.5773 189.887 66.4619 190.057V190.057Z" fill="#004040"/>
<path fill-rule="evenodd" clip-rule="evenodd" d="M66.271 189.417C66.4117 189.669 66.5716 189.765 66.7289 189.693C66.8871 189.73 67.0445 189.592 67.1784 189.3C67.0268 189.278 66.875 189.303 66.7247 189.373C66.5734 189.339 66.4215 189.354 66.271 189.417H66.271Z" fill="#004040"/>
<path fill-rule="evenodd" clip-rule="evenodd" d="M67.7637 190.058C67.9282 190.069 68.0934 190.051 68.2513 190.003C68.4263 189.962 68.5967 189.904 68.7601 189.829C68.8602 189.789 68.9555 189.738 69.0441 189.676C69.0989 189.636 69.1367 189.577 69.1501 189.511C69.1555 189.434 69.118 189.361 69.0526 189.32C68.6476 189.178 68.1981 189.339 67.9757 189.706C67.9088 189.81 67.8668 189.927 67.8527 190.049C67.8419 190.094 67.8419 190.141 67.8527 190.185C67.8878 190.035 67.948 189.892 68.0308 189.761C68.1245 189.619 68.259 189.508 68.4166 189.443C68.6004 189.357 68.8112 189.348 69.0018 189.418C69.0866 189.464 69.0654 189.562 69.0018 189.621C68.921 189.68 68.8343 189.729 68.7431 189.77C68.5843 189.845 68.4199 189.907 68.2513 189.956C67.9502 190.024 67.7637 190.045 67.7637 190.058V190.058Z" fill="#004040"/>
<path fill-rule="evenodd" clip-rule="evenodd" d="M67.8949 190.071C67.9372 189.959 67.9372 189.835 67.8949 189.723C67.8675 189.597 67.8076 189.48 67.7211 189.384C67.6251 189.247 67.4643 189.169 67.2971 189.18C67.1975 189.215 67.1417 189.32 67.1699 189.422C67.1917 189.498 67.2293 189.569 67.2801 189.63C67.3557 189.731 67.444 189.822 67.543 189.901C67.6287 189.979 67.732 190.036 67.844 190.067C67.844 190.067 67.738 189.99 67.5854 189.85C67.497 189.768 67.4174 189.677 67.348 189.579C67.2674 189.486 67.2038 189.303 67.3225 189.269C67.4412 189.235 67.5812 189.35 67.666 189.439C67.7447 189.526 67.804 189.628 67.8398 189.74C67.8676 189.848 67.886 189.959 67.8949 190.071V190.071Z" fill="#004040"/>
<path fill-rule="evenodd" clip-rule="evenodd" d="M59.6099 190.469C59.6099 190.469 59.8261 190.427 60.1738 190.427C61.0991 190.425 61.9425 190.957 62.3404 191.792C62.4931 192.106 62.527 192.326 62.5439 192.322C62.5609 192.318 62.5439 192.263 62.5439 192.165C62.5172 192.028 62.4745 191.894 62.4167 191.767C62.0367 190.883 61.1517 190.325 60.1907 190.363C60.0477 190.365 59.9054 190.383 59.7667 190.418C59.7122 190.427 59.6593 190.445 59.6099 190.469V190.469Z" fill="#004040"/>
<path fill-rule="evenodd" clip-rule="evenodd" d="M63.4346 191.664C63.8076 191.742 64.1851 191.742 64.5582 191.664C64.9329 191.621 65.3031 191.502 65.6606 191.309C65.6606 191.259 65.1603 191.408 64.5497 191.507C63.9391 191.607 63.4346 191.614 63.4346 191.664V191.664Z" fill="#004040"/>
<path fill-rule="evenodd" clip-rule="evenodd" d="M61.9463 191.678C61.9463 191.699 62.0283 191.781 62.1308 191.888C62.2334 191.996 62.2949 192.099 62.3427 192.094C62.3906 192.09 62.3838 191.97 62.2607 191.841C62.1377 191.712 61.9668 191.648 61.9463 191.678V191.678Z" fill="#004040"/>
<path fill-rule="evenodd" clip-rule="evenodd" d="M61.3057 191.045C61.3057 191.078 61.3617 191.192 61.4793 191.306C61.597 191.42 61.7034 191.481 61.7258 191.454C61.7482 191.427 61.6698 191.306 61.5578 191.192C61.4457 191.078 61.3281 191.011 61.3057 191.045V191.045Z" fill="#004040"/>
<path fill-rule="evenodd" clip-rule="evenodd" d="M60.4707 190.894C60.4707 190.961 60.5767 190.894 60.6954 190.995C60.8142 191.096 60.899 191.208 60.9159 191.152C60.9329 191.096 60.8566 190.838 60.7124 190.76C60.5682 190.682 60.458 190.894 60.4707 190.894V190.894Z" fill="#004040"/>
<path fill-rule="evenodd" clip-rule="evenodd" d="M59.8813 190.776C59.8813 190.884 59.9568 191.028 60.0699 191.1C60.183 191.172 60.2886 191.1 60.3037 191.1C60.3188 191.1 60.2283 190.848 60.1151 190.776C60.002 190.704 59.8889 190.668 59.8813 190.776V190.776Z" fill="#004040"/>
<path fill-rule="evenodd" clip-rule="evenodd" d="M61.7426 69.96C61.1363 66.7164 57.5535 64.9144 56.1543 61.904C55.6073 60.7422 55.4123 59.4321 54.8145 58.2958C53.4048 55.8199 50.4066 54.733 47.7379 55.7306L47.5132 56.0782C48.9633 59.1226 50.4091 61.2129 51.8549 64.253C52.4173 65.2926 52.8068 66.4167 53.0082 67.5814C53.1397 68.7558 52.8259 70.0448 51.9185 70.7995C51.1893 71.4016 50.2225 71.5839 49.4169 72.1097C48.2393 72.9923 47.6284 74.4409 47.8185 75.9002C48.0271 77.34 48.6878 78.6763 49.7053 79.7162C50.6381 80.7381 52.1136 81.6115 53.3432 80.9882C53.9665 80.666 54.3523 80.0385 54.8102 79.5085C55.7515 78.4273 57.0489 77.7404 58.2022 76.8924C60.4155 75.2854 62.2472 72.6609 61.7426 69.96V69.96Z" fill="#004040"/>
<path fill-rule="evenodd" clip-rule="evenodd" d="M92.9235 85.0374C92.1094 85.7794 87.6786 89.5021 87.6786 89.5021L83.2817 85.4996C83.3962 85.1731 84.4732 83.3244 84.5961 82.8623C84.7046 82.4635 84.742 82.0487 84.7064 81.6369C84.6854 81.1237 84.594 80.6159 84.435 80.1275C84.24 79.7035 84.6725 79.2541 85.0456 79.4661C85.4187 79.6781 85.9784 80.8568 85.9614 82.3747C85.9445 83.8926 91.8974 80.4073 92.7454 81.2596L92.9235 85.0374Z" fill="#FFBE9D"/>
<path fill-rule="evenodd" clip-rule="evenodd" d="M55.1196 79.0633L69.7052 96.5193L83.1036 84.4099L88.9463 90.1085C88.9463 90.1085 72.1348 108.608 69.5695 108.476C67.0043 108.345 58.2911 102.583 58.2911 102.583L55.1196 79.0633Z" fill="#8FC5A3"/>
<path fill-rule="evenodd" clip-rule="evenodd" d="M88.23 76.4641C88.1095 76.4239 87.9788 76.4856 87.9332 76.604L83.9518 86.602C83.8767 86.7882 83.9605 87.0006 84.1426 87.0853L88.849 89.3325C88.9427 89.3765 89.0502 89.3806 89.1469 89.3439C89.2436 89.3071 89.3213 89.2326 89.3621 89.1375L93.8183 78.7749C93.8594 78.6779 93.8585 78.5683 93.816 78.4719C93.7734 78.3756 93.6929 78.3011 93.5936 78.2661L88.23 76.4641Z" fill="#004040"/>
<path fill-rule="evenodd" clip-rule="evenodd" d="M88.1024 77.1849L84.4561 86.1059L89.3872 88.3403L93.1226 78.8809L88.1024 77.1849V77.1849Z" fill="#F5F5F5"/>
<path fill-rule="evenodd" clip-rule="evenodd" d="M86.6824 92.7076C86.3132 92.4973 85.9653 92.2517 85.6436 91.9741C85.0288 91.4865 84.2062 90.7826 83.3455 89.9473C82.4848 89.1121 81.764 88.3022 81.2595 87.7001C80.9715 87.39 80.717 87.0504 80.5005 86.6868C80.8134 86.9703 81.1066 87.2749 81.3782 87.5984C81.9082 88.1708 82.6502 88.9552 83.4982 89.7862C84.3462 90.6173 85.1518 91.3381 85.7411 91.8511C86.0743 92.1145 86.3888 92.4007 86.6824 92.7076V92.7076Z" fill="#004040"/>
<path fill-rule="evenodd" clip-rule="evenodd" d="M82.4888 86.1144C82.5185 86.1398 82.3362 86.284 82.3574 86.5935C82.3681 86.7585 82.4463 86.9119 82.5736 87.0175C82.7455 87.1275 82.9641 87.1334 83.1417 87.0331C83.3194 86.9327 83.4271 86.7424 83.4216 86.5384C83.3973 86.3653 83.3001 86.211 83.1545 86.1144C83.0071 86.0309 82.8405 85.9871 82.6711 85.9872C82.6711 85.9872 82.7093 85.9363 82.811 85.9151C82.9554 85.8847 83.1059 85.9073 83.235 85.9787C83.4377 86.0799 83.5818 86.2694 83.6251 86.4918C83.6523 86.778 83.5098 87.0537 83.2606 87.1971C83.0113 87.3404 82.7013 87.3249 82.4676 87.1574C82.295 87.0103 82.2022 86.7901 82.2174 86.5638C82.2221 86.4168 82.2775 86.276 82.3743 86.1653C82.4252 86.1229 82.4846 86.1059 82.4888 86.1144V86.1144Z" fill="#004040"/>
<path fill-rule="evenodd" clip-rule="evenodd" d="M69.1373 101.62C69.0201 101.382 68.9468 101.125 68.921 100.861C68.7145 99.6007 68.8613 98.3077 69.3451 97.1257C69.4279 96.8734 69.5573 96.639 69.7267 96.4345C69.4435 97.2629 69.2321 98.114 69.0949 98.9785C69.0336 99.8586 69.0478 100.742 69.1373 101.62V101.62Z" fill="#004040"/>
<path fill-rule="evenodd" clip-rule="evenodd" d="M71.2317 101.484C71.0363 101.297 70.8768 101.076 70.761 100.831C70.1081 99.6981 69.7387 98.4239 69.6841 97.1172C69.6521 96.848 69.6679 96.5753 69.7307 96.3116C69.8358 97.2095 69.9958 98.1001 70.2098 98.9785C70.4978 99.8343 70.8391 100.671 71.2317 101.484L71.2317 101.484Z" fill="#004040"/>
<path fill-rule="evenodd" clip-rule="evenodd" d="M88.1875 78.847L85.7749 84.8466L89.3874 86.3264L91.9059 80.1954L88.1875 78.847V78.847Z" fill="#EBEBEB"/>
<path fill-rule="evenodd" clip-rule="evenodd" d="M86.6381 84.084L86.6585 84.0351C86.6915 83.9563 86.7475 83.9006 86.8265 83.8681C86.9056 83.8357 86.9846 83.8359 87.0634 83.8689L89.1994 84.7615C89.2782 84.7945 89.3339 84.8505 89.3664 84.9295C89.3988 85.0086 89.3986 85.0876 89.3656 85.1664L89.3247 85.2642C89.2918 85.3431 89.2358 85.3987 89.1567 85.4312C89.0776 85.4637 88.9987 85.4634 88.9198 85.4305L86.7839 84.5379C86.705 84.5049 86.6493 84.4489 86.6169 84.3698C86.5844 84.2907 86.5847 84.2118 86.6176 84.1329L86.6381 84.084Z" fill="#8FC5A3"/>
<path fill-rule="evenodd" clip-rule="evenodd" d="M88.4536 79.8279L91.132 80.8362L90.9856 81.2251L88.3072 80.2167L88.4536 79.8279Z" fill="#455A64"/>
<path fill-rule="evenodd" clip-rule="evenodd" d="M87.8062 81.0742L90.7663 82.1886L90.478 82.9545L87.5178 81.84L87.8062 81.0742Z" fill="#E0E0E0"/>
<path fill-rule="evenodd" clip-rule="evenodd" d="M87.3154 82.3018L90.2756 83.4162L89.9873 84.182L87.0271 83.0676L87.3154 82.3018Z" fill="#E0E0E0"/>
<path fill-rule="evenodd" clip-rule="evenodd" d="M92.7668 81.2596C92.0842 81.3699 91.2531 81.4377 90.5705 81.5522C90.3752 81.5696 90.1865 81.632 90.0193 81.7345C89.8567 81.8548 89.8017 82.0731 89.8879 82.256C89.9939 82.4468 90.2652 82.4638 90.4857 82.4595L91.9909 82.4087C91.3486 82.4376 90.7122 82.5444 90.0956 82.7267C89.8158 82.8199 89.502 83.0107 89.4935 83.3075C89.5188 83.5727 89.7287 83.7826 89.9939 83.8079C90.2565 83.8244 90.5199 83.8244 90.7825 83.8079C90.7825 83.8079 91.8128 83.8079 91.8552 83.9605C91.215 83.9605 90.3627 84.0919 89.7352 84.1513C89.5571 84.1513 89.4766 84.4057 89.4342 84.5753C89.3871 84.7501 89.4637 84.9347 89.6207 85.0247C89.7026 85.0521 89.7895 85.0608 89.8751 85.0502L92.3683 84.9739" fill="#FFBE9D"/>
<path fill-rule="evenodd" clip-rule="evenodd" d="M49.9636 78.016C49.9636 78.016 52.9952 77.6598 55.1237 79.059C57.0444 80.331 63.786 99.64 63.5232 105.372C63.2603 111.105 63.9938 121.213 65.1725 125.377C66.3512 129.54 67.2416 165.657 57.9645 182.863L40.6865 180.437L46.0883 134.039L45.5371 91.9487L49.9636 78.016Z" fill="#8FC5A3"/>
<g opacity="0.3">
<path fill-rule="evenodd" clip-rule="evenodd" d="M48.9676 78.016C48.9676 78.016 52.0034 77.6598 54.1319 79.059C56.0526 80.331 62.79 99.64 62.5313 105.372C62.2727 111.105 62.9978 121.213 64.1807 125.377C65.3637 129.54 66.2498 165.657 56.9727 182.863L41.1787 180.437L45.0965 134.039L44.5198 91.9529L48.9676 78.016Z" fill="black"/>
</g>
<path fill-rule="evenodd" clip-rule="evenodd" d="M42.6162 77.1298C42.6162 77.1298 33.1144 76.108 35.6541 89.6887L38.0964 103.977L53.6105 113.365C55.7051 113.929 53.9243 103.613 57.0788 98.8386C58.2618 97.0536 58.3508 95.718 58.2618 94.8954C58.5628 91.779 56.0655 89.8371 55.7178 86.6868C55.3277 82.1245 55.3447 79.5975 53.3604 79.0845L42.6247 77.1298" fill="#004040"/>
<path fill-rule="evenodd" clip-rule="evenodd" d="M55.8915 85.6013C55.729 86.2585 55.729 86.9454 55.8915 87.6026C56.0803 88.3137 56.3656 88.9956 56.7395 89.6293C57.2067 90.4135 57.6121 91.2329 57.9522 92.08C58.5038 93.6711 58.5261 95.3979 58.0158 97.0027C57.8647 97.4821 57.6629 97.9441 57.4137 98.3807C57.3281 98.5455 57.2228 98.6993 57.0999 98.8386C57.4053 98.2325 57.662 97.603 57.8674 96.956C58.3179 95.3812 58.275 93.7061 57.7444 92.1564C57.4081 91.3196 57.0128 90.5077 56.5614 89.7269C56.1924 89.0731 55.921 88.3689 55.7558 87.6365C55.646 87.1402 55.6374 86.6268 55.7304 86.1271C55.7564 85.991 55.7947 85.8576 55.8449 85.7285C55.8618 85.648 55.883 85.5971 55.8915 85.6013V85.6013Z" fill="#004040"/>
<path fill-rule="evenodd" clip-rule="evenodd" d="M51.134 78.1093C50.9092 75.773 50.71 73.3096 50.71 73.3096C50.71 73.3096 53.678 72.5125 53.9069 68.5226C54.1316 64.7066 52.9826 58.0922 52.9826 58.0922V57.7573C48.4755 56.4174 43.1416 56.4853 40.394 60.2419V60.2419L42.514 79.1947C42.7642 81.3953 44.8503 82.9386 47.2035 82.6545V82.6545C49.6076 82.3705 51.346 80.3353 51.134 78.1093V78.1093Z" fill="#FFBE9D"/>
<path fill-rule="evenodd" clip-rule="evenodd" d="M52.9995 62.9046C53.0278 63.1729 52.8418 63.4166 52.5755 63.4601C52.4471 63.4833 52.3147 63.4536 52.2085 63.3778C52.1023 63.3019 52.0313 63.1863 52.0116 63.0573C51.9834 62.789 52.1694 62.5453 52.4356 62.5018C52.5641 62.4786 52.6964 62.5083 52.8027 62.5841C52.9089 62.66 52.9799 62.7756 52.9995 62.9046V62.9046Z" fill="#004040"/>
<path fill-rule="evenodd" clip-rule="evenodd" d="M52.9997 62.3492C52.9403 62.4212 52.5333 62.1796 51.9906 62.2304C51.4479 62.2813 51.079 62.5993 51.0111 62.5357C50.9433 62.4721 51.0111 62.3873 51.1935 62.2432C51.412 62.0566 51.6832 61.9425 51.9694 61.9167C52.2514 61.8877 52.5353 61.9501 52.7792 62.0948C52.9446 62.205 52.9997 62.328 52.9997 62.3492V62.3492Z" fill="#004040"/>
<path fill-rule="evenodd" clip-rule="evenodd" d="M47.3521 63.6382C47.3803 63.9064 47.1943 64.1501 46.9281 64.1936C46.7964 64.2167 46.6611 64.1842 46.5542 64.1038C46.4474 64.0235 46.3786 63.9025 46.3642 63.7696C46.3359 63.5013 46.5219 63.2576 46.7882 63.2142C46.9198 63.1911 47.0552 63.2236 47.162 63.3039C47.2689 63.3843 47.3377 63.5053 47.3521 63.6382V63.6382Z" fill="#004040"/>
<path fill-rule="evenodd" clip-rule="evenodd" d="M47.3481 63.1039C47.293 63.176 46.8817 62.9301 46.3432 62.9852C45.8047 63.0403 45.4316 63.3498 45.3638 63.2905C45.2959 63.2311 45.385 63.1378 45.5461 62.9937C45.7652 62.8086 46.0363 62.696 46.322 62.6714C46.6036 62.6418 46.8872 62.7027 47.1318 62.8453C47.3099 62.9598 47.3778 63.07 47.3481 63.1039V63.1039Z" fill="#004040"/>
<path fill-rule="evenodd" clip-rule="evenodd" d="M49.7138 66.9284C49.9855 66.8136 50.2703 66.7324 50.5618 66.6867C50.6975 66.657 50.8247 66.6146 50.8374 66.5214C50.8386 66.3764 50.7925 66.2349 50.7059 66.1186L50.1929 65.1052C49.7265 64.2488 49.3282 63.3571 49.0015 62.4382C49.5381 63.2538 50.0075 64.1117 50.4049 65.0035L50.901 66.0253C51.005 66.1828 51.05 66.372 51.0282 66.5595C50.998 66.6629 50.9211 66.746 50.8204 66.7842C50.7459 66.8143 50.6673 66.8329 50.5872 66.8394C50.3014 66.9079 50.0076 66.9379 49.7138 66.9284V66.9284Z" fill="#004040"/>
<path fill-rule="evenodd" clip-rule="evenodd" d="M50.7188 73.3096C48.8723 73.5183 47.0041 73.2115 45.3213 72.4234C45.3213 72.4234 46.8604 74.9928 50.757 74.2381L50.7188 73.3096Z" fill="#EB996E"/>
<path fill-rule="evenodd" clip-rule="evenodd" d="M49.6077 68.264C49.3719 68.0206 49.0272 67.9164 48.6961 67.9884C48.4558 68.0326 48.2442 68.1737 48.111 68.3785C47.9754 68.5735 47.9754 68.8322 48.111 69.0272C48.3096 69.2076 48.5972 69.251 48.8402 69.1374C49.0878 69.0212 49.3098 68.8569 49.4932 68.6541C49.5501 68.6051 49.5975 68.5462 49.6331 68.4802C49.6672 68.4142 49.6589 68.3343 49.6119 68.2767" fill="#8FC5A3"/>
<path fill-rule="evenodd" clip-rule="evenodd" d="M48.1534 67.4626C48.2424 67.4626 48.3018 68.035 48.8445 68.4039C49.3872 68.7728 50.0105 68.6456 50.0232 68.7262C50.0359 68.8067 49.896 68.8576 49.6289 68.8873C49.285 68.929 48.9376 68.8463 48.6495 68.6541C48.3738 68.467 48.1797 68.182 48.1067 67.857C48.0601 67.6153 48.1152 67.4626 48.1534 67.4626V67.4626Z" fill="#004040"/>
<path fill-rule="evenodd" clip-rule="evenodd" d="M32.5247 131.512L26.4997 156.341C26.4997 156.341 19.3171 186.072 19.0797 186.857L18.855 187.781L28.9759 188.544L46.5125 133.395L32.5247 131.512Z" fill="#004040"/>
<path fill-rule="evenodd" clip-rule="evenodd" d="M50.7441 148.943C52.3808 156.859 58.3761 190.071 58.3761 190.071L68.6411 189.015L62.8027 146.653C62.7097 145.548 62.4847 144.457 62.1327 143.405L52.5376 114.637L34.4922 103.159C34.3141 103.159 31.5708 110.575 31.9482 115.714C32.1472 118.013 32.947 120.219 34.2675 122.112C35.4165 123.787 37.015 126.123 37.3712 126.666C37.9436 127.531 50.7441 148.943 50.7441 148.943V148.943Z" fill="#004040"/>
<path fill-rule="evenodd" clip-rule="evenodd" d="M30.2182 113.132C29.7264 114.921 29.3151 116.731 28.9971 118.559C27.8438 125.211 24.9097 141.4 23.006 145.695C20.5934 151.122 16.6757 171.623 17.8798 175.375C19.084 179.127 45.3169 182.914 45.3169 182.914C45.3169 182.914 46.8221 158.343 48.3315 152.165C49.8409 145.987 52.9955 132.415 53.4534 124.427C53.9113 116.439 53.7545 102.57 51.1935 93.9796C48.6325 85.3894 42.7389 76.3624 42.7389 76.3624C42.7389 76.3624 37.7018 77.7531 35.9846 79.7544C35.9846 79.7544 33.8901 82.3239 33.8646 84.7703C33.8392 87.2168 32.7029 98.8472 31.9439 105.606C31.7065 107.535 30.8542 110.838 30.2182 113.132V113.132Z" fill="#8FC5A3"/>
<path fill-rule="evenodd" clip-rule="evenodd" d="M53.4787 124.02C53.4716 123.979 53.4716 123.938 53.4787 123.897C53.4787 123.804 53.4787 123.685 53.4787 123.537C53.4787 123.206 53.4405 122.744 53.4109 122.154C53.3459 120.45 53.1831 118.751 52.9232 117.066C52.7344 115.907 52.426 114.77 52.0032 113.674C51.5105 112.427 50.8283 111.263 49.9807 110.223C49.1115 109.108 48.0812 108.027 47.0805 106.831C46.5649 106.229 46.085 105.598 45.6432 104.94C45.1906 104.256 44.8166 103.524 44.5281 102.756C43.8943 101.244 43.8015 99.5593 44.2652 97.9864C44.552 97.2744 44.9235 96.5996 45.3718 95.9766C45.5576 95.6727 45.7003 95.3445 45.7958 95.0014C45.8378 94.8367 45.8507 94.666 45.834 94.4968C45.8148 94.3342 45.7566 94.1785 45.6644 94.0432C45.4706 93.7727 45.1936 93.5731 44.8757 93.475C44.5577 93.3563 44.2228 93.2672 43.9048 93.1188C43.5841 92.9764 43.3095 92.7473 43.1119 92.4574C42.9335 92.1727 42.8178 91.8533 42.7727 91.5204C42.6962 90.9038 42.712 90.2794 42.8193 89.6675C42.9041 89.0866 42.9847 88.5269 43.061 87.9969C43.3748 85.8769 43.6249 84.1555 43.803 82.9513C43.8963 82.3662 43.9641 81.9083 44.015 81.5776L44.0786 81.2256C44.0846 81.1842 44.0931 81.1431 44.104 81.1027C44.1106 81.1434 44.1106 81.1849 44.104 81.2256C44.104 81.3189 44.104 81.4376 44.0659 81.586C44.0235 81.9168 43.9684 82.3747 43.892 82.9598C43.7309 84.1724 43.502 85.8939 43.2221 88.0181C43.15 88.5524 43.0737 89.1121 42.9932 89.6929C42.8933 90.2872 42.8804 90.8928 42.955 91.4907C43.0006 91.7925 43.1089 92.0814 43.273 92.3387C43.4514 92.6015 43.7016 92.8076 43.9938 92.9323C44.2864 93.068 44.6171 93.1528 44.952 93.2757C45.311 93.3881 45.6236 93.6143 45.8424 93.9202C45.949 94.0822 46.0172 94.2664 46.0417 94.4587C46.0617 94.6519 46.0474 94.8471 45.9993 95.0353C45.8995 95.4012 45.7452 95.75 45.5414 96.0699C45.1029 96.6834 44.7385 97.3466 44.456 98.0457C44.0135 99.5714 44.1078 101.203 44.7231 102.667C45.3162 104.142 46.166 105.5 47.2332 106.678C48.2253 107.866 49.2556 108.951 50.1291 110.07C50.9824 111.147 51.6646 112.348 52.1516 113.632C52.571 114.737 52.8737 115.882 53.0547 117.049C53.3051 118.735 53.4467 120.434 53.4787 122.137C53.4787 122.728 53.4872 123.19 53.5041 123.524V123.884C53.4829 123.978 53.4787 124.02 53.4787 124.02V124.02Z" fill="#004040"/>
<path fill-rule="evenodd" clip-rule="evenodd" d="M50.1334 127.378C50.1334 127.378 50.1546 127.31 50.2564 127.242C50.4058 127.154 50.5823 127.124 50.7525 127.158C51.024 127.198 51.2466 127.394 51.3206 127.658C51.428 127.989 51.2957 128.35 51.0001 128.533C50.7045 128.716 50.3221 128.673 50.0741 128.43C49.8716 128.244 49.7984 127.956 49.8875 127.696C49.94 127.529 50.0516 127.388 50.2013 127.298C50.3073 127.242 50.3751 127.242 50.3793 127.255C50.2153 127.374 50.0958 127.544 50.0401 127.738C49.9873 127.936 50.0535 128.146 50.2097 128.277C50.3933 128.45 50.6704 128.477 50.8844 128.344C51.0985 128.211 51.1958 127.95 51.1213 127.709C51.0744 127.51 50.918 127.355 50.7185 127.31C50.5212 127.272 50.3169 127.296 50.1334 127.378H50.1334Z" fill="#004040"/>
<path fill-rule="evenodd" clip-rule="evenodd" d="M47.3223 141.989C47.3223 141.989 47.3478 141.921 47.4495 141.858C47.5975 141.766 47.775 141.734 47.9456 141.769C48.2162 141.811 48.4378 142.006 48.5138 142.269C48.6212 142.6 48.4888 142.961 48.1932 143.144C47.8976 143.327 47.5153 143.284 47.2672 143.041C47.1072 142.887 47.0275 142.667 47.0516 142.447C47.0757 142.226 47.2007 142.029 47.3902 141.913C47.4962 141.853 47.5683 141.853 47.5683 141.866C47.4071 141.988 47.2884 142.157 47.2291 142.35C47.1794 142.548 47.2469 142.756 47.4029 142.888C47.5924 143.047 47.8597 143.074 48.0771 142.956C48.2786 142.812 48.3726 142.56 48.3145 142.32C48.2643 142.115 48.0981 141.959 47.8905 141.921C47.6985 141.888 47.5012 141.912 47.3223 141.989V141.989Z" fill="#004040"/>
<path fill-rule="evenodd" clip-rule="evenodd" d="M47.2333 123.71C47.2403 123.757 47.2403 123.804 47.2333 123.85C47.2333 123.958 47.2206 124.099 47.1951 124.274C47.157 124.652 47.0976 125.186 47.0213 125.869C46.8602 127.255 46.5973 129.261 46.2454 131.728C46.0588 132.962 45.8214 134.31 45.5373 135.748C45.3984 136.499 45.1941 137.237 44.9267 137.953C44.889 138.049 44.8451 138.142 44.7953 138.232C44.7373 138.323 44.6658 138.405 44.5833 138.474C44.4248 138.611 44.2479 138.726 44.0575 138.813C43.6812 138.985 43.2894 139.12 42.8873 139.216C41.1918 139.568 39.4671 139.761 37.7357 139.793C35.8816 139.868 34.0247 139.847 32.1728 139.729L31.9354 139.7C31.8262 139.683 31.7315 139.615 31.681 139.517C31.607 139.366 31.5624 139.202 31.5495 139.034C31.5179 138.725 31.5094 138.415 31.5241 138.105C31.5241 137.495 31.6004 136.897 31.6683 136.308C31.8082 135.125 31.9905 133.975 32.1813 132.86C32.5629 130.63 32.9827 128.531 33.3982 126.611V126.539H33.4957C36.8845 126.244 40.2421 125.661 43.5317 124.796C44.7232 124.482 45.6518 124.198 46.2835 124.007L47.017 123.783C47.0947 123.755 47.174 123.732 47.2545 123.715L47.1909 123.74L47.0043 123.808C46.839 123.872 46.6142 123.956 46.3005 124.062C45.6772 124.274 44.7486 124.571 43.5614 124.91C40.2677 125.817 36.8987 126.424 33.4957 126.725L33.5805 126.649C33.1565 128.569 32.7622 130.668 32.3848 132.894C32.1982 134.009 32.0202 135.158 31.8845 136.333C31.8166 136.918 31.7573 137.516 31.7403 138.114C31.7254 138.412 31.7339 138.711 31.7658 139.008C31.7778 139.146 31.8122 139.28 31.8675 139.407C31.9057 139.458 31.9184 139.475 31.9651 139.483L32.1898 139.509C34.0331 139.628 35.8815 139.651 37.7273 139.577C39.4371 139.547 41.1405 139.358 42.8152 139.013C43.2058 138.922 43.5864 138.793 43.9515 138.627C44.308 138.498 44.5912 138.221 44.7275 137.868C44.9931 137.166 45.1974 136.443 45.338 135.705C45.6433 134.277 45.8723 132.928 46.0673 131.699C46.4616 129.235 46.7287 127.238 46.9153 125.856C47.0086 125.173 47.0806 124.639 47.1315 124.262C47.157 124.092 47.1739 123.952 47.1909 123.838C47.2079 123.723 47.2333 123.71 47.2333 123.71V123.71Z" fill="#004040"/>
<path fill-rule="evenodd" clip-rule="evenodd" d="M46.9623 126.801C46.8044 126.908 46.6352 126.996 46.4577 127.064C46.127 127.221 45.6351 127.425 45.0246 127.654C41.8107 128.84 38.4007 129.406 34.9758 129.32C34.3186 129.32 33.7886 129.265 33.4282 129.222C33.2381 129.213 33.0493 129.186 32.8643 129.142C33.0531 129.121 33.2436 129.121 33.4324 129.142C33.7971 129.142 34.3228 129.167 34.9758 129.167C38.3757 129.166 41.7521 128.604 44.9695 127.505C45.5885 127.293 46.0846 127.111 46.4238 126.979C46.5969 126.902 46.7773 126.843 46.9623 126.801V126.801Z" fill="#004040"/>
<path fill-rule="evenodd" clip-rule="evenodd" d="M23.167 114.845L23.2052 114.645C23.2348 114.501 23.2772 114.31 23.3324 114.06C23.4553 113.543 23.6334 112.788 23.8581 111.83C24.3245 109.897 25.0326 107.107 25.9527 103.672L27.4748 98.0585C28.026 96.0402 28.6069 93.8821 29.298 91.6306C30.0054 89.2693 30.8796 86.9612 31.9141 84.7237C32.4696 83.543 33.0969 82.3975 33.7924 81.2935C34.1391 80.7185 34.5319 80.1726 34.9669 79.6611C35.4061 79.1312 35.9504 78.698 36.5654 78.3891C37.2031 78.0728 37.9383 78.0151 38.6175 78.228C39.2688 78.459 39.8379 78.8763 40.2542 79.4279C41.1022 80.5218 41.3142 81.8956 41.4371 83.1549C41.6534 85.6989 41.8611 88.1665 42.0604 90.5113C42.4505 95.1965 42.8024 99.4153 43.0992 102.96C43.396 106.505 43.6207 109.362 43.7819 111.355C43.8582 112.339 43.9175 113.106 43.9557 113.64C43.9557 113.895 43.9854 114.09 43.9981 114.234C44.0019 114.302 44.0019 114.37 43.9981 114.438C43.9981 114.438 43.9981 114.37 43.9684 114.238C43.9387 114.107 43.9345 113.895 43.9091 113.645L43.6928 111.364C43.5147 109.371 43.2688 106.509 42.9423 102.973C42.6159 99.4365 42.2639 95.2092 41.8527 90.5282C41.6491 88.1835 41.4287 85.7243 41.2167 83.1761C41.0937 81.9253 40.8817 80.5897 40.0803 79.5636C39.6906 79.0479 39.1585 78.6573 38.5497 78.44C37.9255 78.2418 37.2485 78.2951 36.6629 78.5884C36.0737 78.8888 35.5527 79.3074 35.1323 79.818C34.7048 80.3154 34.3191 80.8472 33.979 81.408C33.2875 82.4997 32.6631 83.6325 32.1091 84.8C31.0772 87.0269 30.203 89.3236 29.4931 91.673C28.7977 93.916 28.2211 96.0742 27.6529 98.0882C27.0848 100.102 26.576 101.98 26.1053 103.693C25.164 107.124 24.4348 109.909 23.9429 111.834C23.697 112.792 23.5189 113.53 23.379 114.056C23.3112 114.302 23.2645 114.48 23.2264 114.633C23.1882 114.785 23.167 114.845 23.167 114.845V114.845Z" fill="#455A64"/>
<path fill-rule="evenodd" clip-rule="evenodd" d="M22.1282 113.382C21.9629 114.043 18.8804 131.584 18.8804 131.584L41.8145 132.326L44.9733 114.137L22.1282 113.382Z" fill="#004040"/>
<path fill-rule="evenodd" clip-rule="evenodd" d="M44.736 114.48C44.6718 114.539 44.6022 114.591 44.5282 114.637C44.3925 114.734 44.1805 114.87 43.9092 115.061C43.3707 115.409 42.5736 115.909 41.5729 116.464C40.5723 117.02 39.3639 117.685 37.9859 118.338C37.2948 118.661 36.5782 119.004 35.7853 119.288C34.9645 119.556 34.1043 119.682 33.2413 119.661C31.5594 119.583 29.9127 119.153 28.4077 118.398C27.1956 117.79 26.0574 117.044 25.0157 116.176C24.1211 115.447 23.4427 114.806 22.9805 114.361C22.7516 114.137 22.5565 113.958 22.4548 113.836C22.3926 113.776 22.3358 113.71 22.2852 113.64C22.3583 113.687 22.4265 113.741 22.4887 113.802C22.6286 113.933 22.8152 114.094 23.0399 114.298C23.519 114.722 24.2101 115.345 25.1132 116.053C26.1606 116.892 27.2983 117.612 28.5052 118.199C29.9782 118.917 31.5828 119.327 33.2201 119.403C34.0638 119.424 34.9052 119.304 35.709 119.047C36.4722 118.771 37.2057 118.432 37.8926 118.118C39.2664 117.473 40.479 116.846 41.4881 116.291C42.4972 115.735 43.3028 115.273 43.8583 114.951L44.4985 114.578C44.5727 114.534 44.6527 114.501 44.736 114.48V114.48Z" fill="#455A64"/>
<path fill-rule="evenodd" clip-rule="evenodd" d="M43.3325 115.252C43.3918 115.252 42.777 119.068 41.9587 123.787C41.1404 128.506 40.4281 132.288 40.3687 132.288C40.3093 132.288 40.9241 128.472 41.7425 123.757C42.5608 119.042 43.2731 115.243 43.3325 115.252V115.252Z" fill="#455A64"/>
<path fill-rule="evenodd" clip-rule="evenodd" d="M32.5459 118.949C32.4823 119.517 32.4229 120.09 32.3593 120.645C32.3275 120.823 32.3275 121.005 32.3593 121.183C32.4001 121.365 32.5367 121.51 32.7155 121.561C32.9302 121.582 33.1347 121.465 33.2243 121.268C33.3081 121.074 33.35 120.865 33.3472 120.653C33.3769 120.043 33.4108 119.432 33.4448 118.826H32.6985" fill="#455A64"/>
<path fill-rule="evenodd" clip-rule="evenodd" d="M37.2692 78.6774C39.1348 78.0499 40.6909 80.4667 40.9029 82.4214C41.1285 84.6755 41.1711 86.9443 41.0301 89.2054C40.6952 95.8876 37.672 102.277 37.672 102.277L56.8538 105.152L56.15 112.53L31.8929 109.926C30.1858 109.745 28.6492 108.81 27.7032 107.377C26.7572 105.945 26.5008 104.164 27.0042 102.523C29.1708 95.4551 32.7112 85.2918 33.4956 83.6086C34.5811 81.3402 34.704 79.5339 37.2692 78.6774V78.6774Z" fill="#8FC5A3"/>
<path fill-rule="evenodd" clip-rule="evenodd" d="M30.9771 109.731H31.1043L31.4689 109.782L32.8723 109.994C34.1019 110.164 35.887 110.418 38.1299 110.677C42.6159 111.207 48.9165 111.834 56.1542 112.373L56.0397 112.47C56.2644 110.126 56.5018 107.649 56.7435 105.105V105.105L56.8368 105.224L37.6593 102.337H37.5533L37.5872 102.239C38.8338 98.3807 39.7878 95.188 40.3559 92.9408C40.6443 91.8214 40.8435 90.9353 40.9665 90.3332L41.1064 89.6463C41.1403 89.4937 41.1615 89.4131 41.1615 89.4131C41.1615 89.4131 41.1615 89.4937 41.1361 89.6506C41.1107 89.8074 41.0767 90.0406 41.0174 90.3459C40.9114 90.9522 40.7248 91.8384 40.4535 92.9662C39.915 95.2219 38.9864 98.4274 37.7568 102.294L37.6805 102.18L56.8707 105.025H56.9725V105.131V105.131C56.7308 107.675 56.4934 110.147 56.2687 112.496V112.602H56.1669C48.925 112.034 42.6243 111.376 38.1384 110.808C35.8997 110.528 34.1147 110.257 32.8893 110.062L31.4604 109.816L31.1 109.748L30.9771 109.731Z" fill="#004040"/>
<path fill-rule="evenodd" clip-rule="evenodd" d="M52.3721 112.199C52.3773 110.924 52.458 109.65 52.6137 108.384C52.6931 107.103 52.8489 105.829 53.0802 104.567C53.0696 105.842 52.9875 107.116 52.8343 108.383C52.753 109.663 52.5987 110.937 52.3721 112.199L52.3721 112.199Z" fill="#004040"/>
<path fill-rule="evenodd" clip-rule="evenodd" d="M54.8105 105.818C54.8105 105.818 54.8613 105.788 54.9546 105.818C55.0896 105.847 55.208 105.928 55.2853 106.042C55.417 106.219 55.4303 106.458 55.3193 106.649C55.1844 106.886 54.9134 107.01 54.6456 106.959C54.3779 106.907 54.173 106.69 54.1363 106.42C54.0991 106.209 54.1746 105.993 54.3356 105.852C54.6112 105.618 54.8529 105.699 54.8401 105.72C54.8274 105.741 54.6324 105.754 54.4458 105.962C54.3402 106.076 54.2987 106.235 54.3356 106.386C54.3755 106.564 54.5113 106.704 54.6875 106.75C54.8664 106.775 55.0439 106.696 55.1454 106.547C55.2212 106.416 55.2212 106.254 55.1454 106.123C55.0182 105.864 54.8062 105.852 54.8105 105.818V105.818Z" fill="#004040"/>
<path fill-rule="evenodd" clip-rule="evenodd" d="M60.9878 102.977L61.8612 112.063H66.292L67.352 102.977H60.9878V102.977Z" fill="#EBEBEB"/>
<path fill-rule="evenodd" clip-rule="evenodd" d="M60.988 101.802C60.7129 102.142 60.5631 102.565 60.564 103.002L67.772 103.002C67.8425 102.556 67.683 102.105 67.348 101.802H60.988Z" fill="#455A64"/>
<path fill-rule="evenodd" clip-rule="evenodd" d="M61.8061 100.967L61.5645 101.866L66.9959 101.908L66.6355 100.959L61.8061 100.967V100.967Z" fill="#455A64"/>
<path fill-rule="evenodd" clip-rule="evenodd" d="M60.8945 105.25C60.8945 105.334 61.4245 109.824 61.4245 109.824H66.839L67.3521 105.25H60.8945Z" fill="#455A64"/>
<path fill-rule="evenodd" clip-rule="evenodd" d="M61.2337 104.448L61.0938 105.97L66.3344 106.093C66.3344 106.093 66.3344 107.861 65.8044 108.391C65.8044 108.391 66.3344 109.451 65.7451 110.041C65.1557 110.63 64.8038 110.465 64.8038 110.465C64.8038 110.465 65.0412 111.643 64.4519 111.94C63.8625 112.237 56.2178 111.779 56.2178 111.779L56.6884 106.848L58.3844 106.7C58.4565 105.067 60.144 104.257 61.2337 104.448V104.448Z" fill="#FFBE9D"/>
<path fill-rule="evenodd" clip-rule="evenodd" d="M54.5981 58.1304C54.3127 57.2479 53.7218 56.4962 52.9318 56.0104C52.3932 55.7037 51.7711 55.576 51.1552 55.6458V55.6458V55.5185C50.587 54.4967 49.4592 54.2762 48.2974 54.4713C47.1357 54.6663 45.9909 55.5143 44.9563 56.0655C43.5571 56.8117 42.2215 57.664 40.8817 58.5162C39.7708 59.2243 38.6345 59.9621 37.867 61.0305C37.0584 62.1744 36.7423 63.5949 36.9894 64.9738C37.265 66.462 38.1808 67.9672 37.6381 69.3791C37.2734 70.3161 36.3661 70.9055 35.747 71.7111C34.7815 73.0067 34.7491 74.7736 35.6665 76.1038C36.2855 76.9517 37.231 77.4351 38.096 78.0033C39.4655 78.9064 40.6909 80.0427 42.1664 80.7677C43.6419 81.4928 45.5118 81.726 46.8686 80.8017C48.2254 79.8773 48.7172 77.9397 48.467 76.2649C48.2169 74.5901 47.4113 73.0637 46.771 71.4991C45.9264 69.4603 45.341 67.3237 45.0284 65.1391C44.9054 64.2657 44.8376 63.3329 45.2489 62.5569C45.622 61.8616 46.3216 61.4164 46.9449 60.9415C48.4306 59.8216 49.6691 58.407 50.5828 56.7863C50.8984 57.5709 51.397 58.2687 52.0371 58.8215C52.8944 59.618 53.854 60.2968 54.8906 60.8397C54.9827 59.9261 54.8831 59.0033 54.5981 58.1304V58.1304Z" fill="#004040"/>
<path fill-rule="evenodd" clip-rule="evenodd" d="M188.371 184.088C188.086 182.969 188.828 181.845 189.643 181.035C190.457 180.225 191.461 179.505 191.898 178.432C192.602 176.693 191.682 174.429 192.873 172.983C193.577 172.135 194.828 171.856 195.451 170.944C195.739 170.439 195.932 169.886 196.019 169.312C196.695 166.421 198.134 163.765 200.187 161.62C200.311 164.201 199.737 166.767 198.525 169.049C198.042 169.96 197.448 170.847 197.283 171.868C197.016 173.522 197.927 175.235 197.512 176.859C197.037 178.716 194.943 179.95 194.832 181.862C194.739 183.482 196.142 184.911 196.028 186.526C195.939 187.214 195.687 187.871 195.294 188.443C194.022 190.516 192.187 191.941 189.397 191.877L185.983 191.979L188.371 184.088Z" fill="#8FC5A3"/>
<g opacity="0.3">
<path fill-rule="evenodd" clip-rule="evenodd" d="M188.371 184.088C188.086 182.969 188.828 181.845 189.643 181.035C190.457 180.225 191.461 179.505 191.898 178.432C192.602 176.693 191.682 174.429 192.873 172.983C193.577 172.135 194.828 171.856 195.451 170.944C195.739 170.439 195.932 169.886 196.019 169.312C196.695 166.421 198.134 163.765 200.187 161.62C200.311 164.201 199.737 166.767 198.525 169.049C198.042 169.96 197.448 170.847 197.283 171.868C197.016 173.522 197.927 175.235 197.512 176.859C197.037 178.716 194.943 179.95 194.832 181.862C194.739 183.482 196.142 184.911 196.028 186.526C195.939 187.214 195.687 187.871 195.294 188.443C194.022 190.516 192.187 191.941 189.397 191.877L185.983 191.979L188.371 184.088Z" fill="black"/>
</g>
<path fill-rule="evenodd" clip-rule="evenodd" d="M185.288 192.072C184.975 192.117 184.657 192.108 184.347 192.047C183.97 191.988 183.599 191.893 183.24 191.762C182.746 191.587 182.285 191.33 181.875 191.003C181.628 190.803 181.435 190.543 181.315 190.249C181.213 189.918 181.16 189.573 181.158 189.227C181.155 188.858 181.131 188.49 181.086 188.124C181.017 187.733 180.873 187.359 180.662 187.022C180.264 186.314 179.598 185.64 179.39 184.677C179.182 183.715 179.335 182.71 179.496 181.688C179.657 180.666 179.823 179.547 179.437 178.479C179.051 177.41 178.334 176.443 177.966 175.235C177.597 174.027 177.779 172.712 177.711 171.419C177.693 170.764 177.549 170.12 177.287 169.519C177.016 168.913 176.634 168.341 176.342 167.705C175.74 166.433 175.642 164.957 175.494 163.524C175.417 162.807 175.341 162.078 175.26 161.345C175.214 160.605 175.092 159.872 174.896 159.157C174.668 158.435 174.399 157.728 174.09 157.037C173.928 156.68 173.798 156.31 173.7 155.93C173.637 155.527 173.62 155.15 173.594 154.756C173.562 153.967 173.597 153.177 173.7 152.394C173.798 151.605 173.946 150.825 174.035 150.037V149.901L174.056 149.744L174.196 149.812C174.925 150.18 175.558 150.713 176.045 151.368C176.516 152.006 176.893 152.709 177.164 153.454C177.643 154.913 177.99 156.411 178.203 157.931C178.408 159.382 178.875 160.782 179.581 162.065C179.95 162.676 180.399 163.236 180.794 163.829C181.216 164.409 181.505 165.075 181.642 165.78C181.837 167.226 181.031 168.489 181.192 169.77C181.268 170.398 181.476 171.004 181.803 171.546C182.112 172.093 182.473 172.602 182.816 173.111C183.166 173.609 183.47 174.138 183.724 174.692C183.963 175.228 184.107 175.802 184.148 176.388C184.228 177.542 184.059 178.631 184.148 179.662C184.243 180.645 184.531 181.6 184.996 182.473C185.42 183.321 185.844 184.075 186.238 184.817C186.429 185.186 186.607 185.547 186.751 185.907C186.887 186.256 186.985 186.618 187.043 186.988C187.139 187.633 187.139 188.289 187.043 188.934C186.951 189.837 186.609 190.696 186.056 191.415C185.972 191.522 185.878 191.622 185.776 191.712C185.708 191.783 185.633 191.847 185.551 191.902C185.424 191.996 185.356 192.038 185.356 192.038C185.599 191.845 185.822 191.627 186.022 191.389C186.55 190.668 186.874 189.816 186.959 188.926C187.039 188.287 187.029 187.641 186.929 187.005C186.865 186.644 186.766 186.291 186.632 185.949C186.478 185.582 186.305 185.222 186.115 184.872C185.733 184.139 185.267 183.38 184.843 182.532C184.377 181.644 184.089 180.673 183.995 179.674C183.914 178.619 184.075 177.525 183.995 176.401C183.961 175.829 183.826 175.268 183.596 174.743C183.345 174.201 183.044 173.683 182.697 173.196C182.354 172.687 181.989 172.178 181.671 171.618C181.33 171.055 181.112 170.427 181.031 169.774C180.874 168.409 181.671 167.137 181.455 165.792C181.326 165.119 181.049 164.482 180.645 163.927C180.259 163.342 179.797 162.786 179.424 162.159C178.704 160.853 178.225 159.428 178.012 157.953C177.732 156.477 177.537 154.955 176.982 153.513C176.719 152.788 176.354 152.104 175.896 151.482C175.435 150.856 174.836 150.344 174.145 149.986L174.302 149.897C174.302 149.943 174.302 149.99 174.302 150.037C174.213 150.834 174.065 151.618 173.972 152.394C173.858 153.177 173.814 153.969 173.84 154.76C173.861 155.142 173.882 155.54 173.938 155.901C174.036 156.264 174.162 156.62 174.315 156.965C174.628 157.662 174.9 158.377 175.129 159.106C175.33 159.831 175.454 160.576 175.498 161.328C175.574 162.061 175.655 162.791 175.727 163.511C175.884 164.949 175.981 166.382 176.575 167.628C176.859 168.247 177.241 168.82 177.52 169.447C177.787 170.07 177.931 170.738 177.944 171.415C178.012 172.733 177.834 174.018 178.182 175.188C178.53 176.359 179.272 177.308 179.64 178.428C180.009 179.547 179.865 180.696 179.696 181.714C179.526 182.731 179.352 183.74 179.568 184.652C179.785 185.564 180.416 186.238 180.811 186.967C181.025 187.316 181.169 187.703 181.235 188.108C181.276 188.479 181.297 188.853 181.298 189.227C181.297 189.563 181.344 189.897 181.438 190.219C181.551 190.499 181.732 190.747 181.964 190.94C182.363 191.266 182.812 191.524 183.295 191.703C183.65 191.839 184.016 191.941 184.389 192.008C184.617 192.05 184.848 192.072 185.08 192.076L185.288 192.072Z" fill="#004040"/>
<path fill-rule="evenodd" clip-rule="evenodd" d="M174.748 151.792C174.759 151.827 174.769 151.862 174.777 151.898L174.854 152.203C174.917 152.475 174.993 152.877 175.121 153.386C175.248 153.895 175.545 154.467 175.82 155.176C176.127 155.97 176.393 156.779 176.617 157.601C176.872 158.512 177.096 159.526 177.334 160.607C177.533 161.765 177.894 162.89 178.407 163.948C178.682 164.504 178.996 165.067 179.255 165.682C179.498 166.313 179.659 166.973 179.734 167.645C179.899 169.035 180.137 170.415 180.446 171.779L182.32 179.67C182.914 182.091 183.452 184.275 183.902 186.115C184.351 187.955 184.699 189.418 184.949 190.461C185.063 190.961 185.157 191.36 185.225 191.648L185.288 191.958C185.292 191.993 185.292 192.028 185.288 192.064C185.271 192.032 185.258 191.997 185.25 191.962L185.161 191.656C185.085 191.372 184.983 190.978 184.847 190.482C184.58 189.443 184.203 187.968 183.732 186.153C183.261 184.338 182.719 182.138 182.108 179.721C181.498 177.304 180.879 174.633 180.204 171.818C179.891 170.448 179.654 169.062 179.492 167.667C179.417 167.012 179.262 166.37 179.03 165.754C178.792 165.152 178.483 164.593 178.207 164.033C177.695 162.957 177.335 161.816 177.139 160.641C176.91 159.551 176.694 158.542 176.452 157.635C176.21 156.727 175.947 155.913 175.689 155.209C175.43 154.506 175.146 153.937 175.023 153.399C174.9 152.86 174.845 152.479 174.79 152.203L174.739 151.894C174.738 151.86 174.741 151.825 174.748 151.792H174.748Z" fill="#004040"/>
<path fill-rule="evenodd" clip-rule="evenodd" d="M184.703 192.072C182.477 190.732 181.862 186.704 182.808 184.287C183.753 181.871 185.39 179.67 185.657 177.079C185.861 175.099 185.233 173.056 185.695 171.118C186.335 168.506 188.901 166.492 188.888 163.8C188.888 162.29 188.04 160.866 188.103 159.356C188.201 157.508 189.63 156.049 190.516 154.421C191.877 151.936 191.983 148.985 192.458 146.191C192.933 143.397 194.018 140.408 196.507 139.047C196.859 141.425 197.474 143.053 197.258 146.255C197.181 147.408 195.829 149.613 195.629 152.144C195.511 153.658 195.43 155.171 195.328 156.685C195.227 158.199 195.125 159.653 194.591 161.035C194.167 162.091 193.522 163.045 193.217 164.135C192.636 166.183 193.37 168.413 192.899 170.495C192.505 172.254 191.275 173.759 191.016 175.549C190.652 178.055 192.263 180.671 191.415 183.062C190.991 184.245 190.016 185.182 189.719 186.42C189.498 187.37 189.719 188.379 189.524 189.333C189.202 190.872 186.259 192.055 184.69 191.949" fill="#8FC5A3"/>
<path fill-rule="evenodd" clip-rule="evenodd" d="M195.888 141.408C195.893 141.453 195.893 141.499 195.888 141.544L195.837 141.934C195.782 142.277 195.723 142.782 195.604 143.431C195.485 144.079 195.133 144.821 194.858 145.708C194.582 146.594 194.281 147.611 194.01 148.756C193.738 149.901 193.53 151.164 193.297 152.526C193.108 153.986 192.715 155.413 192.131 156.766C191.813 157.474 191.457 158.186 191.19 158.945C190.93 159.725 190.767 160.533 190.707 161.353C190.574 163.094 190.346 164.827 190.024 166.543C189.32 170.058 188.65 173.403 188.044 176.452C187.438 179.5 186.823 182.222 186.348 184.508C185.873 186.793 185.457 188.646 185.182 189.944C185.043 190.577 184.933 191.069 184.851 191.419C184.813 191.58 184.783 191.707 184.762 191.805C184.752 191.848 184.739 191.89 184.724 191.932C184.718 191.888 184.718 191.844 184.724 191.801C184.745 191.699 184.766 191.572 184.796 191.411L185.084 189.927L186.183 184.474C186.657 182.172 187.217 179.433 187.845 176.392C188.472 173.352 189.117 169.999 189.808 166.488C190.126 164.777 190.354 163.05 190.49 161.315C190.556 160.478 190.724 159.652 190.991 158.856C191.266 158.084 191.627 157.368 191.945 156.664C192.528 155.321 192.923 153.904 193.119 152.453C193.357 151.097 193.586 149.829 193.857 148.684C194.095 147.653 194.386 146.634 194.726 145.631C195.014 144.741 195.366 144.012 195.506 143.371C195.646 142.731 195.71 142.227 195.778 141.887C195.807 141.726 195.833 141.599 195.854 141.502C195.875 141.404 195.888 141.408 195.888 141.408V141.408Z" fill="#004040"/>
<path d="M83.2962 67.74C83.2962 67.9867 83.2478 68.21 83.1512 68.41C83.0578 68.6067 82.9128 68.7633 82.7162 68.88C82.5228 68.9933 82.2778 69.05 81.9812 69.05C81.5612 69.05 81.2412 68.93 81.0212 68.69C80.8045 68.4467 80.6962 68.1267 80.6962 67.73V65.43H81.1412V67.745C81.1412 68.035 81.2128 68.26 81.3562 68.42C81.4995 68.58 81.7162 68.66 82.0062 68.66C82.2062 68.66 82.3678 68.6217 82.4912 68.545C82.6145 68.465 82.7045 68.3567 82.7612 68.22C82.8212 68.08 82.8512 67.92 82.8512 67.74V65.43H83.2962V67.74ZM86.1384 68.045C86.1384 68.2583 86.0884 68.44 85.9884 68.59C85.8918 68.7367 85.7534 68.85 85.5734 68.93C85.3968 69.01 85.1851 69.05 84.9384 69.05C84.8151 69.05 84.6951 69.0433 84.5784 69.03C84.4651 69.0167 84.3601 68.9983 84.2634 68.975C84.1701 68.9483 84.0868 68.9167 84.0134 68.88V68.45C84.1301 68.5033 84.2718 68.5517 84.4384 68.595C84.6084 68.6383 84.7818 68.66 84.9584 68.66C85.1218 68.66 85.2568 68.6367 85.3634 68.59C85.4734 68.5433 85.5551 68.4767 85.6084 68.39C85.6651 68.3033 85.6934 68.2017 85.6934 68.085C85.6934 67.9683 85.6684 67.87 85.6184 67.79C85.5718 67.71 85.4918 67.6367 85.3784 67.57C85.2651 67.5 85.1101 67.4267 84.9134 67.35C84.7734 67.2933 84.6501 67.2333 84.5434 67.17C84.4368 67.1033 84.3468 67.0283 84.2734 66.945C84.2001 66.8617 84.1451 66.7667 84.1084 66.66C84.0718 66.5533 84.0534 66.43 84.0534 66.29C84.0534 66.1 84.0984 65.9383 84.1884 65.805C84.2818 65.6683 84.4084 65.5633 84.5684 65.49C84.7318 65.4167 84.9201 65.38 85.1334 65.38C85.3168 65.38 85.4851 65.3983 85.6384 65.435C85.7918 65.4717 85.9334 65.52 86.0634 65.58L85.9234 65.965C85.8034 65.9117 85.6751 65.8667 85.5384 65.83C85.4051 65.7933 85.2668 65.775 85.1234 65.775C84.9868 65.775 84.8718 65.7967 84.7784 65.84C84.6884 65.8833 84.6201 65.945 84.5734 66.025C84.5268 66.1017 84.5034 66.1917 84.5034 66.295C84.5034 66.415 84.5268 66.515 84.5734 66.595C84.6201 66.675 84.6968 66.7467 84.8034 66.81C84.9101 66.8733 85.0518 66.9417 85.2284 67.015C85.4251 67.0917 85.5901 67.175 85.7234 67.265C85.8601 67.3517 85.9634 67.4567 86.0334 67.58C86.1034 67.7033 86.1384 67.8583 86.1384 68.045ZM88.7414 69H86.8614V65.43H88.7414V65.825H87.3064V66.94H88.6564V67.33H87.3064V68.605H88.7414V69ZM90.4586 65.43C90.7386 65.43 90.9686 65.4683 91.1486 65.545C91.332 65.6183 91.467 65.73 91.5536 65.88C91.6436 66.03 91.6886 66.2183 91.6886 66.445C91.6886 66.635 91.6553 66.7933 91.5886 66.92C91.5253 67.0467 91.442 67.1483 91.3386 67.225C91.2386 67.2983 91.132 67.3567 91.0186 67.4L91.9486 69H91.4286L90.6186 67.525H89.9736V69H89.5286V65.43H90.4586ZM90.4336 65.82H89.9736V67.145H90.4536C90.6336 67.145 90.7803 67.12 90.8936 67.07C91.0103 67.0167 91.0953 66.94 91.1486 66.84C91.202 66.74 91.2286 66.615 91.2286 66.465C91.2286 66.3083 91.2003 66.1833 91.1436 66.09C91.087 65.9967 90.9986 65.9283 90.8786 65.885C90.762 65.8417 90.6136 65.82 90.4336 65.82ZM95.2031 69H94.6781L92.9081 66.035H92.8881C92.8914 66.095 92.8948 66.1617 92.8981 66.235C92.9048 66.3083 92.9098 66.3883 92.9131 66.475C92.9164 66.5583 92.9198 66.645 92.9231 66.735C92.9264 66.825 92.9281 66.915 92.9281 67.005V69H92.5181V65.43H93.0381L94.8031 68.385H94.8231C94.8198 68.345 94.8164 68.29 94.8131 68.22C94.8098 68.1467 94.8064 68.0667 94.8031 67.98C94.7998 67.89 94.7964 67.7983 94.7931 67.705C94.7898 67.6117 94.7881 67.525 94.7881 67.445V65.43H95.2031V69ZM98.2618 69L97.8718 67.895H96.5468L96.1618 69H95.7068L97.0068 65.415H97.4268L98.7218 69H98.2618ZM97.3718 66.415C97.3652 66.3883 97.3502 66.34 97.3268 66.27C97.3068 66.2 97.2852 66.1283 97.2618 66.055C97.2418 65.9783 97.2252 65.92 97.2118 65.88C97.1952 65.9467 97.1768 66.015 97.1568 66.085C97.1402 66.1517 97.1235 66.2133 97.1068 66.27C97.0902 66.3267 97.0752 66.375 97.0618 66.415L96.6918 67.495H97.7418L97.3718 66.415ZM100.704 69L99.6244 65.87H99.6044C99.6111 65.9367 99.6161 66.0217 99.6194 66.125C99.6261 66.2283 99.6311 66.3417 99.6344 66.465C99.6377 66.585 99.6394 66.7083 99.6394 66.835V69H99.2294V65.43H99.8794L100.894 68.355H100.914L101.949 65.43H102.599V69H102.159V66.805C102.159 66.6883 102.161 66.5733 102.164 66.46C102.168 66.3433 102.173 66.235 102.179 66.135C102.186 66.0317 102.191 65.945 102.194 65.875H102.174L101.074 69H100.704ZM105.442 69H103.562V65.43H105.442V65.825H104.007V66.94H105.357V67.33H104.007V68.605H105.442V69Z" fill="#A1A1A1"/>
</svg>
